<svg width="1920" height="2147" viewBox="0 0 1920 2147" fill="none" xmlns="http://www.w3.org/2000/svg">
  <g clip-path="url(#clip0)">
    <rect width="1920" height="2147" fill="white"/>
    <rect width="1920" height="2170" fill="url(#paint0_linear)"/>
    <path
      d="M-206.181 973.816C-121.906 1114.85 35.1731 1270.78 299.285 1401.32C375.976 1434.82 531.241 1499.56 538.773 1490.52C548.188 1479.21 486.639 1373.82 293.587 1246.19C100.535 1118.57 188.61 1047.02 181.164 838.915C173.718 630.811 89.7587 753.234 -27.3627 607.094C-144.484 460.954 -109.427 429.233 -150.332 256.082C-191.237 82.9321 -344.904 38.091 -399.125 42.0048C-453.346 45.9186 -539.89 177.818 -560.154 410.915C-580.417 644.012 -469.374 525.68 -364.582 627.174C-259.789 728.668 -290.456 832.784 -206.181 973.816Z"
      fill="url(#paint1_linear)"/>
    <mask id="mask0" mask-type="alpha" maskUnits="userSpaceOnUse" x="-293" y="-176" width="830" height="830">
      <circle cx="122" cy="239" r="415" fill="url(#paint2_linear)"/>
    </mask>
    <g mask="url(#mask0)">
      <circle cx="122" cy="239" r="415" fill="url(#paint3_linear)"/>
      <path
        d="M367 232.565C333 176.565 365 69.0646 540 136.565C573.5 264.231 640.7 520.665 641.5 525.065C642.3 529.465 207.833 791.231 -9.5 921.565L-231 497.565C-171.5 548.898 -32.1 651.365 49.5 650.565C151.5 649.565 -32.5 421.565 14 352.065C60.5 282.565 119.5 553.565 258.5 536.565C397.5 519.565 133 278.065 188 223.065C243 168.065 367 389.065 449.5 363.565C532 338.065 401 288.565 367 232.565Z"
        fill="url(#paint4_linear)"/>
    </g>
    <path
      d="M129.333 729L131.344 735.928C132.385 739.494 135.173 742.282 138.738 743.323L145.667 745.333L138.738 747.344C135.173 748.385 132.385 751.173 131.344 754.738L129.333 761.667L127.323 754.738C126.282 751.173 123.494 748.385 119.928 747.344L113 745.333L119.928 743.323C123.494 742.282 126.282 739.494 127.323 735.928L129.333 729Z"
      fill="url(#paint5_linear)"/>
    <path
      d="M598.333 82L600.344 88.9282C601.385 92.494 604.173 95.282 607.738 96.3231L614.667 98.3333L607.738 100.344C604.173 101.385 601.385 104.173 600.344 107.738L598.333 114.667L596.323 107.738C595.282 104.173 592.494 101.385 588.928 100.344L582 98.3333L588.928 96.3231C592.494 95.282 595.282 92.494 596.323 88.9282L598.333 82Z"
      fill="url(#paint6_linear)"/>
    <path
      d="M262.333 964L264.344 970.928C265.385 974.494 268.173 977.282 271.738 978.323L278.667 980.333L271.738 982.344C268.173 983.385 265.385 986.173 264.344 989.738L262.333 996.667L260.323 989.738C259.282 986.173 256.494 983.385 252.928 982.344L246 980.333L252.928 978.323C256.494 977.282 259.282 974.494 260.323 970.928L262.333 964Z"
      fill="url(#paint7_linear)"/>
<path d="M1518.33 980L1520.34 986.928C1521.38 990.494 1524.17 993.282 1527.74 994.323L1534.67 996.333L1527.74 998.344C1524.17 999.385 1521.38 1002.17 1520.34 1005.74L1518.33 1012.67L1516.32 1005.74C1515.28 1002.17 1512.49 999.385 1508.93 998.344L1502 996.333L1508.93 994.323C1512.49 993.282 1515.28 990.494 1516.32 986.928L1518.33 980Z" fill="url(#paint8_linear)"/>
<path d="M1463.33 598L1465.34 604.928C1466.38 608.494 1469.17 611.282 1472.74 612.323L1479.67 614.333L1472.74 616.344C1469.17 617.385 1466.38 620.173 1465.34 623.738L1463.33 630.667L1461.32 623.738C1460.28 620.173 1457.49 617.385 1453.93 616.344L1447 614.333L1453.93 612.323C1457.49 611.282 1460.28 608.494 1461.32 604.928L1463.33 598Z" fill="url(#paint9_linear)"/>
<path d="M1446.33 311L1448.34 317.928C1449.38 321.494 1452.17 324.282 1455.74 325.323L1462.67 327.333L1455.74 329.344C1452.17 330.385 1449.38 333.173 1448.34 336.738L1446.33 343.667L1444.32 336.738C1443.28 333.173 1440.49 330.385 1436.93 329.344L1430 327.333L1436.93 325.323C1440.49 324.282 1443.28 321.494 1444.32 317.928L1446.33 311Z" fill="url(#paint10_linear)"/>
<path d="M1740.33 705L1742.34 711.928C1743.38 715.494 1746.17 718.282 1749.74 719.323L1756.67 721.333L1749.74 723.344C1746.17 724.385 1743.38 727.173 1742.34 730.738L1740.33 737.667L1738.32 730.738C1737.28 727.173 1734.49 724.385 1730.93 723.344L1724 721.333L1730.93 719.323C1734.49 718.282 1737.28 715.494 1738.32 711.928L1740.33 705Z" fill="url(#paint11_linear)"/>
<path d="M1740.33 963L1742.34 969.928C1743.38 973.494 1746.17 976.282 1749.74 977.323L1756.67 979.333L1749.74 981.344C1746.17 982.385 1743.38 985.173 1742.34 988.738L1740.33 995.667L1738.32 988.738C1737.28 985.173 1734.49 982.385 1730.93 981.344L1724 979.333L1730.93 977.323C1734.49 976.282 1737.28 973.494 1738.32 969.928L1740.33 963Z" fill="url(#paint12_linear)"/>
<path d="M1707.33 295L1709.34 301.928C1710.38 305.494 1713.17 308.282 1716.74 309.323L1723.67 311.333L1716.74 313.344C1713.17 314.385 1710.38 317.173 1709.34 320.738L1707.33 327.667L1705.32 320.738C1704.28 317.173 1701.49 314.385 1697.93 313.344L1691 311.333L1697.93 309.323C1701.49 308.282 1704.28 305.494 1705.32 301.928L1707.33 295Z" fill="url(#paint13_linear)"/>
<path d="M1447.33 82L1449.34 88.9282C1450.38 92.494 1453.17 95.282 1456.74 96.3231L1463.67 98.3333L1456.74 100.344C1453.17 101.385 1450.38 104.173 1449.34 107.738L1447.33 114.667L1445.32 107.738C1444.28 104.173 1441.49 101.385 1437.93 100.344L1431 98.3333L1437.93 96.3231C1441.49 95.282 1444.28 92.494 1445.32 88.9282L1447.33 82Z" fill="url(#paint14_linear)"/>
<path d="M500.333 615L502.344 621.928C503.385 625.494 506.173 628.282 509.738 629.323L516.667 631.333L509.738 633.344C506.173 634.385 503.385 637.173 502.344 640.738L500.333 647.667L498.323 640.738C497.282 637.173 494.494 634.385 490.928 633.344L484 631.333L490.928 629.323C494.494 628.282 497.282 625.494 498.323 621.928L500.333 615Z" fill="url(#paint15_linear)"/>
<circle cx="1549" cy="377" r="5" fill="#E9EDFF"/>
<circle cx="1658" cy="520" r="5" fill="#E9EDFF"/>
<circle cx="1745" cy="182" r="5" fill="#E9EDFF"/>
<circle cx="1341" cy="45" r="5" fill="#E9EDFF"/>
<circle cx="1762" cy="858" r="5" fill="#E9EDFF"/>
<circle cx="1544" cy="726" r="5" fill="#E9EDFF"/>
<circle cx="1375" cy="991" r="5" fill="#E9EDFF"/>
<circle cx="522" cy="814" r="5" fill="#E9EDFF"/>
<circle cx="279" cy="682" r="5" fill="#E9EDFF"/>
<circle cx="421" cy="975" r="5" fill="#E9EDFF"/>
<circle cx="108" cy="868" r="5" fill="#E9EDFF"/>
<circle cx="343" cy="792" r="5" fill="#E9EDFF"/>
<path opacity="0.32" d="M295.414 792L162.378 864.381C158.668 865.685 156 869.215 156 873.368C156 878.632 160.272 882.904 165.537 882.904C167.882 882.904 170.024 882.055 171.687 880.655L295.414 792Z" fill="url(#paint16_linear)"/>
<path d="M165.776 882.103C170.759 882.103 174.798 878.063 174.798 873.08C174.798 868.097 170.759 864.058 165.776 864.058C160.793 864.058 156.754 868.097 156.754 873.08C156.754 878.063 160.793 882.103 165.776 882.103Z" fill="url(#paint17_linear)"/>
<path d="M1544.31 143.622C1552.21 143.622 1558.62 137.215 1558.62 129.311C1558.62 121.407 1552.21 115 1544.31 115C1536.41 115 1530 121.407 1530 129.311C1530 137.215 1536.41 143.622 1544.31 143.622Z" fill="url(#paint18_linear)"/>
<path d="M1822.5 956C1843.21 956 1860 939.211 1860 918.5C1860 897.789 1843.21 881 1822.5 881C1801.79 881 1785 897.789 1785 918.5C1785 939.211 1801.79 956 1822.5 956Z" fill="url(#paint19_linear)"/>
    <path
      d="M1729.19 1142.83C1859.1 909.873 1950.85 562.46 1920 85.1732C1904.84 -49.8417 1869.82 -320.683 1850.98 -323.93C1827.44 -327.988 1729.19 -155.905 1706.46 219.106C1683.72 594.117 1511.59 528.368 1224.97 707.757C938.359 887.145 1178.69 905.814 1068.27 1189.1C957.847 1472.39 884.771 1448.85 674.479 1646.91C464.186 1844.97 525.893 2097.41 575.422 2170.46C624.95 2243.52 880.712 2258.13 1224.97 2097.41C1569.24 1936.69 1312.66 1876.62 1370.31 1646.91C1427.96 1417.19 1599.28 1375.8 1729.19 1142.83Z"
      fill="url(#paint20_linear)"/>
    <mask id="mask1" mask-type="alpha" maskUnits="userSpaceOnUse" x="-293" y="-176" width="830" height="830">
      <circle cx="122" cy="239" r="415" fill="url(#paint21_linear)"/>
    </mask>
    <g mask="url(#mask1)">
      <circle cx="122" cy="239" r="415" fill="url(#paint22_linear)"/>
      <path
        d="M367 232.565C333 176.565 365 69.0646 540 136.565C573.5 264.231 640.7 520.665 641.5 525.065C642.3 529.465 207.833 791.231 -9.5 921.565L-231 497.565C-171.5 548.898 -32.1 651.365 49.5 650.565C151.5 649.565 -32.5 421.565 14 352.065C60.5 282.565 119.5 553.565 258.5 536.565C397.5 519.565 133 278.065 188 223.065C243 168.065 367 389.065 449.5 363.565C532 338.065 401 288.565 367 232.565Z"
        fill="url(#paint23_linear)"/>
    </g>
    <path
      d="M129.333 729L131.344 735.928C132.385 739.494 135.173 742.282 138.738 743.323L145.667 745.333L138.738 747.344C135.173 748.385 132.385 751.173 131.344 754.738L129.333 761.667L127.323 754.738C126.282 751.173 123.494 748.385 119.928 747.344L113 745.333L119.928 743.323C123.494 742.282 126.282 739.494 127.323 735.928L129.333 729Z"
      fill="url(#paint24_linear)"/>
    <path
      d="M598.333 82L600.344 88.9282C601.385 92.494 604.173 95.282 607.738 96.3231L614.667 98.3333L607.738 100.344C604.173 101.385 601.385 104.173 600.344 107.738L598.333 114.667L596.323 107.738C595.282 104.173 592.494 101.385 588.928 100.344L582 98.3333L588.928 96.3231C592.494 95.282 595.282 92.494 596.323 88.9282L598.333 82Z"
      fill="url(#paint25_linear)"/>
    <path
      d="M865.333 1874L867.344 1880.93C868.385 1884.49 871.173 1887.28 874.738 1888.32L881.667 1890.33L874.738 1892.34C871.173 1893.38 868.385 1896.17 867.344 1899.74L865.333 1906.67L863.323 1899.74C862.282 1896.17 859.494 1893.38 855.928 1892.34L849 1890.33L855.928 1888.32C859.494 1887.28 862.282 1884.49 863.323 1880.93L865.333 1874Z"
      fill="url(#paint26_linear)"/>
    <path
      d="M262.333 964L264.344 970.928C265.385 974.494 268.173 977.282 271.738 978.323L278.667 980.333L271.738 982.344C268.173 983.385 265.385 986.173 264.344 989.738L262.333 996.667L260.323 989.738C259.282 986.173 256.494 983.385 252.928 982.344L246 980.333L252.928 978.323C256.494 977.282 259.282 974.494 260.323 970.928L262.333 964Z"
      fill="url(#paint27_linear)"/>
    <path
      d="M1791.33 1523L1793.34 1529.93C1794.38 1533.49 1797.17 1536.28 1800.74 1537.32L1807.67 1539.33L1800.74 1541.34C1797.17 1542.38 1794.38 1545.17 1793.34 1548.74L1791.33 1555.67L1789.32 1548.74C1788.28 1545.17 1785.49 1542.38 1781.93 1541.34L1775 1539.33L1781.93 1537.32C1785.49 1536.28 1788.28 1533.49 1789.32 1529.93L1791.33 1523Z"
      fill="url(#paint28_linear)"/>
    <path
      d="M790.333 916L792.344 922.928C793.385 926.494 796.173 929.282 799.738 930.323L806.667 932.333L799.738 934.344C796.173 935.385 793.385 938.173 792.344 941.738L790.333 948.667L788.323 941.738C787.282 938.173 784.494 935.385 780.928 934.344L774 932.333L780.928 930.323C784.494 929.282 787.282 926.494 788.323 922.928L790.333 916Z"
      fill="url(#paint29_linear)"/>
    <path
      d="M757.333 1355L759.344 1361.93C760.385 1365.49 763.173 1368.28 766.738 1369.32L773.667 1371.33L766.738 1373.34C763.173 1374.38 760.385 1377.17 759.344 1380.74L757.333 1387.67L755.323 1380.74C754.282 1377.17 751.494 1374.38 747.928 1373.34L741 1371.33L747.928 1369.32C751.494 1368.28 754.282 1365.49 755.323 1361.93L757.333 1355Z"
      fill="url(#paint30_linear)"/>
    <path
      d="M1518.33 980L1520.34 986.928C1521.38 990.494 1524.17 993.282 1527.74 994.323L1534.67 996.333L1527.74 998.344C1524.17 999.385 1521.38 1002.17 1520.34 1005.74L1518.33 1012.67L1516.32 1005.74C1515.28 1002.17 1512.49 999.385 1508.93 998.344L1502 996.333L1508.93 994.323C1512.49 993.282 1515.28 990.494 1516.32 986.928L1518.33 980Z"
      fill="url(#paint31_linear)"/>
    <path
      d="M1513.33 2075L1515.34 2081.93C1516.38 2085.49 1519.17 2088.28 1522.74 2089.32L1529.67 2091.33L1522.74 2093.34C1519.17 2094.38 1516.38 2097.17 1515.34 2100.74L1513.33 2107.67L1511.32 2100.74C1510.28 2097.17 1507.49 2094.38 1503.93 2093.34L1497 2091.33L1503.93 2089.32C1507.49 2088.28 1510.28 2085.49 1511.32 2081.93L1513.33 2075Z"
      fill="url(#paint32_linear)"/>
    <path
      d="M1329.33 1388L1331.34 1394.93C1332.38 1398.49 1335.17 1401.28 1338.74 1402.32L1345.67 1404.33L1338.74 1406.34C1335.17 1407.38 1332.38 1410.17 1331.34 1413.74L1329.33 1420.67L1327.32 1413.74C1326.28 1410.17 1323.49 1407.38 1319.93 1406.34L1313 1404.33L1319.93 1402.32C1323.49 1401.28 1326.28 1398.49 1327.32 1394.93L1329.33 1388Z"
      fill="url(#paint33_linear)"/>
    <path
      d="M1446.33 311L1448.34 317.928C1449.38 321.494 1452.17 324.282 1455.74 325.323L1462.67 327.333L1455.74 329.344C1452.17 330.385 1449.38 333.173 1448.34 336.738L1446.33 343.667L1444.32 336.738C1443.28 333.173 1440.49 330.385 1436.93 329.344L1430 327.333L1436.93 325.323C1440.49 324.282 1443.28 321.494 1444.32 317.928L1446.33 311Z"
      fill="url(#paint34_linear)"/>
    <path
      d="M757.333 523L759.344 529.928C760.385 533.494 763.173 536.282 766.738 537.323L773.667 539.333L766.738 541.344C763.173 542.385 760.385 545.173 759.344 548.738L757.333 555.667L755.323 548.738C754.282 545.173 751.494 542.385 747.928 541.344L741 539.333L747.928 537.323C751.494 536.282 754.282 533.494 755.323 529.928L757.333 523Z"
      fill="url(#paint35_linear)"/>
    <path
      d="M1513.33 1665L1515.34 1671.93C1516.38 1675.49 1519.17 1678.28 1522.74 1679.32L1529.67 1681.33L1522.74 1683.34C1519.17 1684.38 1516.38 1687.17 1515.34 1690.74L1513.33 1697.67L1511.32 1690.74C1510.28 1687.17 1507.49 1684.38 1503.93 1683.34L1497 1681.33L1503.93 1679.32C1507.49 1678.28 1510.28 1675.49 1511.32 1671.93L1513.33 1665Z"
      fill="url(#paint36_linear)"/>
    <path
      d="M1740.33 705L1742.34 711.928C1743.38 715.494 1746.17 718.282 1749.74 719.323L1756.67 721.333L1749.74 723.344C1746.17 724.385 1743.38 727.173 1742.34 730.738L1740.33 737.667L1738.32 730.738C1737.28 727.173 1734.49 724.385 1730.93 723.344L1724 721.333L1730.93 719.323C1734.49 718.282 1737.28 715.494 1738.32 711.928L1740.33 705Z"
      fill="url(#paint37_linear)"/>
    <path
      d="M1740.33 963L1742.34 969.928C1743.38 973.494 1746.17 976.282 1749.74 977.323L1756.67 979.333L1749.74 981.344C1746.17 982.385 1743.38 985.173 1742.34 988.738L1740.33 995.667L1738.32 988.738C1737.28 985.173 1734.49 982.385 1730.93 981.344L1724 979.333L1730.93 977.323C1734.49 976.282 1737.28 973.494 1738.32 969.928L1740.33 963Z"
      fill="url(#paint38_linear)"/>
    <path
      d="M1707.33 295L1709.34 301.928C1710.38 305.494 1713.17 308.282 1716.74 309.323L1723.67 311.333L1716.74 313.344C1713.17 314.385 1710.38 317.173 1709.34 320.738L1707.33 327.667L1705.32 320.738C1704.28 317.173 1701.49 314.385 1697.93 313.344L1691 311.333L1697.93 309.323C1701.49 308.282 1704.28 305.494 1705.32 301.928L1707.33 295Z"
      fill="url(#paint39_linear)"/>
    <path
      d="M1447.33 82L1449.34 88.9282C1450.38 92.494 1453.17 95.282 1456.74 96.3231L1463.67 98.3333L1456.74 100.344C1453.17 101.385 1450.38 104.173 1449.34 107.738L1447.33 114.667L1445.32 107.738C1444.28 104.173 1441.49 101.385 1437.93 100.344L1431 98.3333L1437.93 96.3231C1441.49 95.282 1444.28 92.494 1445.32 88.9282L1447.33 82Z"
      fill="url(#paint40_linear)"/>
    <path
      d="M500.333 615L502.344 621.928C503.385 625.494 506.173 628.282 509.738 629.323L516.667 631.333L509.738 633.344C506.173 634.385 503.385 637.173 502.344 640.738L500.333 647.667L498.323 640.738C497.282 637.173 494.494 634.385 490.928 633.344L484 631.333L490.928 629.323C494.494 628.282 497.282 625.494 498.323 621.928L500.333 615Z"
      fill="url(#paint41_linear)"/>
    <path
      d="M1012.33 540L1014.34 546.928C1015.38 550.494 1018.17 553.282 1021.74 554.323L1028.67 556.333L1021.74 558.344C1018.17 559.385 1015.38 562.173 1014.34 565.738L1012.33 572.667L1010.32 565.738C1009.28 562.173 1006.49 559.385 1002.93 558.344L996 556.333L1002.93 554.323C1006.49 553.282 1009.28 550.494 1010.32 546.928L1012.33 540Z"
      fill="url(#paint42_linear)"/>
    <circle cx="1549" cy="377" r="5" fill="#E9EDFF"/>
    <circle cx="1658" cy="520" r="5" fill="#E9EDFF"/>
    <circle cx="1256" cy="489" r="5" fill="#E9EDFF"/>
    <circle cx="374" cy="2039" r="5" fill="#E9EDFF"/>
    <circle cx="1745" cy="182" r="5" fill="#E9EDFF"/>
    <circle cx="1341" cy="45" r="5" fill="#E9EDFF"/>
    <circle cx="1762" cy="858" r="5" fill="#E9EDFF"/>
    <circle cx="1624" cy="1457" r="5" fill="#E9EDFF"/>
    <circle cx="1452" cy="1204" r="5" fill="#E9EDFF"/>
    <circle cx="1544" cy="726" r="5" fill="#E9EDFF"/>
    <circle cx="1141" cy="1393" r="5" fill="#E9EDFF"/>
    <circle cx="1105" cy="1958" r="5" fill="#E9EDFF"/>
    <circle cx="1375" cy="991" r="5" fill="#E9EDFF"/>
    <circle cx="522" cy="814" r="5" fill="#E9EDFF"/>
    <circle cx="701" cy="327" r="5" fill="#E9EDFF"/>
    <circle cx="279" cy="682" r="5" fill="#E9EDFF"/>
    <circle cx="421" cy="975" r="5" fill="#E9EDFF"/>
    <circle cx="226" cy="1556" r="5" fill="#E9EDFF"/>
    <circle cx="108" cy="868" r="5" fill="#E9EDFF"/>
    <circle cx="343" cy="792" r="5" fill="#E9EDFF"/>
    <circle cx="1085" cy="743" r="5" fill="#E9EDFF"/>
    <path opacity="0.32"
          d="M295.414 792L162.378 864.381C158.668 865.685 156 869.215 156 873.368C156 878.632 160.272 882.904 165.537 882.904C167.882 882.904 170.024 882.055 171.687 880.655L295.414 792Z"
          fill="url(#paint43_linear)"/>
    <path
      d="M165.776 882.103C170.759 882.103 174.798 878.063 174.798 873.08C174.798 868.097 170.759 864.058 165.776 864.058C160.793 864.058 156.754 868.097 156.754 873.08C156.754 878.063 160.793 882.103 165.776 882.103Z"
      fill="url(#paint44_linear)"/>
    <path opacity="0.32"
          d="M1105 149.936L1206.07 262.726C1208.2 266.035 1212.25 267.819 1216.29 266.862C1221.41 265.65 1224.59 260.509 1223.37 255.385C1222.83 253.103 1221.51 251.215 1219.77 249.918L1105 149.936Z"
          fill="url(#paint45_linear)"/>
    <path
      d="M1222.54 255.337C1221.39 250.488 1216.53 247.488 1211.68 248.636C1206.83 249.783 1203.83 254.644 1204.98 259.493C1206.13 264.342 1210.99 267.342 1215.84 266.195C1220.68 265.047 1223.68 260.186 1222.54 255.337Z"
      fill="url(#paint46_linear)"/>
    <path
      d="M1544.31 143.622C1552.21 143.622 1558.62 137.215 1558.62 129.311C1558.62 121.407 1552.21 115 1544.31 115C1536.41 115 1530 121.407 1530 129.311C1530 137.215 1536.41 143.622 1544.31 143.622Z"
      fill="url(#paint47_linear)"/>
    <path
      d="M788.311 1041.62C796.215 1041.62 802.622 1035.21 802.622 1027.31C802.622 1019.41 796.215 1013 788.311 1013C780.407 1013 774 1019.41 774 1027.31C774 1035.21 780.407 1041.62 788.311 1041.62Z"
      fill="url(#paint48_linear)"/>
    <path
      d="M1822.5 956C1843.21 956 1860 939.211 1860 918.5C1860 897.789 1843.21 881 1822.5 881C1801.79 881 1785 897.789 1785 918.5C1785 939.211 1801.79 956 1822.5 956Z"
      fill="url(#paint49_linear)"/>
    <path
      d="M902.5 377C923.211 377 940 360.211 940 339.5C940 318.789 923.211 302 902.5 302C881.789 302 865 318.789 865 339.5C865 360.211 881.789 377 902.5 377Z"
      fill="url(#paint50_linear)"/>
    <path
      d="M246.506 1784.55C241.923 1771.17 275.774 1743.54 333.497 1723.75C356.244 1715.95 378.596 1710.87 397.407 1709.18C400.183 1708.93 402.875 1708.77 405.484 1708.66C420.477 1708.08 431.294 1710.12 436.463 1714.29C437.732 1713.6 439 1712.92 440.268 1712.22C434.561 1706.6 422.499 1703.9 405.328 1704.55C384.627 1705.33 358.638 1710.78 332.157 1719.86C275.87 1739.16 236.55 1768.16 242.617 1785.87C244.137 1790.29 248.325 1793.53 254.619 1795.6C256.964 1794.81 259.309 1794.03 261.643 1793.23C253.255 1791.72 247.954 1788.75 246.506 1784.55Z"
      fill="url(#paint51_linear)"/>
    <path
      d="M343.152 1805.17C372.745 1805.17 396.735 1781.18 396.735 1751.58C396.735 1721.99 372.745 1698 343.152 1698C313.559 1698 289.569 1721.99 289.569 1751.58C289.569 1781.18 313.559 1805.17 343.152 1805.17Z"
      fill="url(#paint52_linear)"/>
    <path
      d="M333.294 1790.48C317.152 1790.48 333.234 1785.16 341.131 1768.26C349.041 1751.36 328.783 1767.13 319.246 1765.14C309.709 1763.14 320.909 1752.12 328.029 1741.23C335.161 1730.34 323.53 1734.1 308.237 1735.98C294.943 1737.6 325.492 1710.9 318.325 1703.87C299.598 1713.59 287.62 1733.92 289.619 1756.22C292.251 1785.69 318.289 1807.46 347.772 1804.82C354.545 1804.2 360.911 1802.35 366.666 1799.51C366.02 1797.43 365.984 1795.16 367.516 1792.67C375.078 1780.31 349.436 1790.48 333.294 1790.48Z"
      fill="url(#paint53_linear)"/>
    <path
      d="M440.268 1712.24C439 1712.93 437.732 1713.61 436.463 1714.31C437.923 1715.49 438.964 1716.83 439.49 1718.35C441.848 1725.24 434.238 1735.63 418.598 1746.86C402.085 1758.72 378.62 1770.2 352.511 1779.15C312.928 1792.73 279.95 1796.51 261.655 1793.23C259.321 1794.05 256.976 1794.81 254.631 1795.6C262.923 1798.33 274.865 1799.05 289.248 1797.76C307.687 1796.1 330.111 1791.17 353.839 1783.03C380.32 1773.94 404.167 1762.29 420.991 1750.19C438.461 1737.64 446.407 1725.85 443.367 1717.01C442.757 1715.24 441.704 1713.65 440.268 1712.24Z"
      fill="url(#paint54_linear)"/>
    <path
      d="M1610.51 430.545C1605.92 417.167 1639.77 389.538 1697.5 369.747C1720.24 361.945 1742.6 356.872 1761.41 355.184C1764.18 354.933 1766.88 354.766 1769.48 354.658C1784.48 354.083 1795.29 356.118 1800.46 360.294C1801.73 359.6 1803 358.918 1804.27 358.224C1798.56 352.6 1786.5 349.895 1769.33 350.554C1748.63 351.331 1722.64 356.776 1696.16 365.858C1639.87 385.159 1600.55 414.164 1606.62 431.873C1608.14 436.289 1612.32 439.531 1618.62 441.601C1620.96 440.812 1623.31 440.034 1625.64 439.232C1617.25 437.724 1611.95 434.745 1610.51 430.545Z"
      fill="url(#paint55_linear)"/>
    <path
      d="M1707.15 451.166C1736.75 451.166 1760.74 427.176 1760.74 397.583C1760.74 367.99 1736.75 344 1707.15 344C1677.56 344 1653.57 367.99 1653.57 397.583C1653.57 427.176 1677.56 451.166 1707.15 451.166Z"
      fill="url(#paint56_linear)"/>
    <path
      d="M1697.29 436.48C1681.15 436.48 1697.23 431.155 1705.13 414.26C1713.04 397.364 1692.78 413.135 1683.25 411.136C1673.71 409.138 1684.91 398.118 1692.03 387.229C1699.16 376.34 1687.53 380.097 1672.24 381.976C1658.94 383.603 1689.49 356.895 1682.32 349.871C1663.6 359.588 1651.62 379.918 1653.62 402.222C1656.25 431.694 1682.29 453.46 1711.77 450.815C1718.54 450.205 1724.91 448.35 1730.67 445.514C1730.02 443.432 1729.98 441.159 1731.52 438.67C1739.08 426.309 1713.44 436.48 1697.29 436.48Z"
      fill="url(#paint57_linear)"/>
    <path
      d="M1804.27 358.236C1803 358.93 1801.73 359.612 1800.46 360.306C1801.92 361.49 1802.96 362.83 1803.49 364.35C1805.85 371.242 1798.24 381.629 1782.6 392.865C1766.09 404.723 1742.62 416.198 1716.51 425.148C1676.93 438.73 1643.95 442.511 1625.65 439.232C1623.32 440.046 1620.98 440.812 1618.63 441.601C1626.92 444.33 1638.87 445.048 1653.25 443.755C1671.69 442.104 1694.11 437.174 1717.84 429.025C1744.32 419.943 1768.17 408.289 1784.99 396.191C1802.46 383.639 1810.41 371.853 1807.37 363.01C1806.76 361.239 1805.7 359.648 1804.27 358.236Z"
      fill="url(#paint58_linear)"/>
    <path
      d="M1687.54 1963.09C1707.73 1963.09 1724.09 1946.73 1724.09 1926.54C1724.09 1906.36 1707.73 1890 1687.54 1890C1667.36 1890 1651 1906.36 1651 1926.54C1651 1946.73 1667.36 1963.09 1687.54 1963.09Z"
      fill="url(#paint59_linear)"/>
    <path
      d="M453.022 1263.04C458.005 1263.04 462.044 1259.01 462.044 1254.02C462.044 1249.04 458.005 1245 453.022 1245C448.039 1245 444 1249.04 444 1254.02C444 1259.01 448.039 1263.04 453.022 1263.04Z"
      fill="url(#paint60_linear)"/>
    <path
      d="M1270.02 858.044C1275.01 858.044 1279.04 854.005 1279.04 849.022C1279.04 844.039 1275.01 840 1270.02 840C1265.04 840 1261 844.039 1261 849.022C1261 854.005 1265.04 858.044 1270.02 858.044Z"
      fill="url(#paint61_linear)"/>
    <path
      d="M1389.02 558.044C1394.01 558.044 1398.04 554.005 1398.04 549.022C1398.04 544.039 1394.01 540 1389.02 540C1384.04 540 1380 544.039 1380 549.022C1380 554.005 1384.04 558.044 1389.02 558.044Z"
      fill="url(#paint62_linear)"/>
    <path
      d="M1136.02 1648.04C1141.01 1648.04 1145.04 1644.01 1145.04 1639.02C1145.04 1634.04 1141.01 1630 1136.02 1630C1131.04 1630 1127 1634.04 1127 1639.02C1127 1644.01 1131.04 1648.04 1136.02 1648.04Z"
      fill="url(#paint63_linear)"/>
    <path
      d="M803.022 182.044C808.005 182.044 812.044 178.005 812.044 173.022C812.044 168.039 808.005 164 803.022 164C798.039 164 794 168.039 794 173.022C794 178.005 798.039 182.044 803.022 182.044Z"
      fill="url(#paint64_linear)"/>
  </g>
<defs>
  <linearGradient id="paint0_linear" x1="146" y1="95.4398" x2="2199.36" y2="696.331" gradientUnits="userSpaceOnUse">
    <stop stop-color="#181C43"/>
    <stop offset="1" stop-color="#3E4797"/>
  </linearGradient>
  <linearGradient id="paint1_linear" x1="731.091" y1="1157.5" x2="-627.621" y2="373.047" gradientUnits="userSpaceOnUse">
    <stop stop-color="#4226EB"/>
    <stop offset="1" stop-color="#72169D" stop-opacity="0.67"/>
  </linearGradient>
<linearGradient id="paint2_linear" x1="-36" y1="-38.5" x2="501" y2="563" gradientUnits="userSpaceOnUse">
<stop stop-color="#C30AF1"/>
<stop offset="0.948647" stop-color="#480169"/>
</linearGradient>
<linearGradient id="paint3_linear" x1="-36" y1="-38.5" x2="501" y2="563" gradientUnits="userSpaceOnUse">
<stop stop-color="#C30AF1"/>
<stop offset="0.948647" stop-color="#480169"/>
</linearGradient>
<linearGradient id="paint4_linear" x1="205.251" y1="115" x2="205.251" y2="921.565" gradientUnits="userSpaceOnUse">
<stop stop-color="#660BDA"/>
<stop offset="1" stop-color="#2F0236"/>
</linearGradient>
<linearGradient id="paint5_linear" x1="128.183" y1="726.61" x2="130.119" y2="758.172" gradientUnits="userSpaceOnUse">
<stop stop-color="white"/>
<stop offset="1" stop-color="#CDD7FF"/>
</linearGradient>
<linearGradient id="paint6_linear" x1="597.183" y1="79.6099" x2="599.119" y2="111.172" gradientUnits="userSpaceOnUse">
<stop stop-color="white"/>
<stop offset="1" stop-color="#CDD7FF"/>
</linearGradient>
<linearGradient id="paint7_linear" x1="261.183" y1="961.61" x2="263.119" y2="993.172" gradientUnits="userSpaceOnUse">
<stop stop-color="white"/>
<stop offset="1" stop-color="#CDD7FF"/>
</linearGradient>
<linearGradient id="paint8_linear" x1="1517.18" y1="977.61" x2="1519.12" y2="1009.17" gradientUnits="userSpaceOnUse">
<stop stop-color="white"/>
<stop offset="1" stop-color="#CDD7FF"/>
</linearGradient>
<linearGradient id="paint9_linear" x1="1462.18" y1="595.61" x2="1464.12" y2="627.172" gradientUnits="userSpaceOnUse">
<stop stop-color="white"/>
<stop offset="1" stop-color="#CDD7FF"/>
</linearGradient>
<linearGradient id="paint10_linear" x1="1445.18" y1="308.61" x2="1447.12" y2="340.172" gradientUnits="userSpaceOnUse">
<stop stop-color="white"/>
<stop offset="1" stop-color="#CDD7FF"/>
</linearGradient>
<linearGradient id="paint11_linear" x1="1739.18" y1="702.61" x2="1741.12" y2="734.172" gradientUnits="userSpaceOnUse">
<stop stop-color="white"/>
<stop offset="1" stop-color="#CDD7FF"/>
</linearGradient>
<linearGradient id="paint12_linear" x1="1739.18" y1="960.61" x2="1741.12" y2="992.172" gradientUnits="userSpaceOnUse">
<stop stop-color="white"/>
<stop offset="1" stop-color="#CDD7FF"/>
</linearGradient>
<linearGradient id="paint13_linear" x1="1706.18" y1="292.61" x2="1708.12" y2="324.172" gradientUnits="userSpaceOnUse">
<stop stop-color="white"/>
<stop offset="1" stop-color="#CDD7FF"/>
</linearGradient>
<linearGradient id="paint14_linear" x1="1446.18" y1="79.6099" x2="1448.12" y2="111.172" gradientUnits="userSpaceOnUse">
<stop stop-color="white"/>
<stop offset="1" stop-color="#CDD7FF"/>
</linearGradient>
<linearGradient id="paint15_linear" x1="499.183" y1="612.61" x2="501.119" y2="644.172" gradientUnits="userSpaceOnUse">
<stop stop-color="white"/>
<stop offset="1" stop-color="#CDD7FF"/>
</linearGradient>
<linearGradient id="paint16_linear" x1="225.708" y1="877.201" x2="225.708" y2="797.216" gradientUnits="userSpaceOnUse">
<stop stop-color="white"/>
<stop offset="1" stop-color="#CDD7FF"/>
</linearGradient>
<linearGradient id="paint17_linear" x1="165.135" y1="862.712" x2="166.207" y2="880.19" gradientUnits="userSpaceOnUse">
<stop stop-color="#EA5455"/>
<stop offset="1" stop-color="#8C1BAB"/>
</linearGradient>
<linearGradient id="paint18_linear" x1="1540.94" y1="132.273" x2="1579.72" y2="98.1594" gradientUnits="userSpaceOnUse">
<stop stop-color="#9708CC"/>
<stop offset="1" stop-color="#43CBFF" stop-opacity="0"/>
</linearGradient>
<linearGradient id="paint19_linear" x1="1813.65" y1="926.262" x2="1915.29" y2="836.872" gradientUnits="userSpaceOnUse">
<stop stop-color="#9708CC"/>
<stop offset="1" stop-color="#43CBFF" stop-opacity="0"/>
</linearGradient>
  <linearGradient id="paint20_linear" x1="1226.5" y1="-324" x2="1226.5" y2="2223" gradientUnits="userSpaceOnUse">
    <stop stop-color="#4226EB"/>
    <stop offset="1" stop-color="#72169D" stop-opacity="0.67"/>
  </linearGradient>
<linearGradient id="paint21_linear" x1="-36" y1="-38.5" x2="501" y2="563" gradientUnits="userSpaceOnUse">
<stop stop-color="#C30AF1"/>
<stop offset="0.948647" stop-color="#480169"/>
</linearGradient>
<linearGradient id="paint22_linear" x1="-36" y1="-38.5" x2="501" y2="563" gradientUnits="userSpaceOnUse">
<stop stop-color="#C30AF1"/>
<stop offset="0.948647" stop-color="#480169"/>
</linearGradient>
<linearGradient id="paint23_linear" x1="205.251" y1="115" x2="205.251" y2="921.565" gradientUnits="userSpaceOnUse">
<stop stop-color="#660BDA"/>
  <stop offset="1" stop-color="#2F0236"/>
</linearGradient>
  <linearGradient id="paint24_linear" x1="128.183" y1="726.61" x2="130.119" y2="758.172" gradientUnits="userSpaceOnUse">
    <stop stop-color="white"/>
    <stop offset="1" stop-color="#CDD7FF"/>
  </linearGradient>
  <linearGradient id="paint25_linear" x1="597.183" y1="79.6099" x2="599.119" y2="111.172"
                  gradientUnits="userSpaceOnUse">
    <stop stop-color="white"/>
    <stop offset="1" stop-color="#CDD7FF"/>
  </linearGradient>
  <linearGradient id="paint26_linear" x1="864.183" y1="1871.61" x2="866.119" y2="1903.17"
                  gradientUnits="userSpaceOnUse">
    <stop stop-color="white"/>
    <stop offset="1" stop-color="#CDD7FF"/>
  </linearGradient>
  <linearGradient id="paint27_linear" x1="261.183" y1="961.61" x2="263.119" y2="993.172" gradientUnits="userSpaceOnUse">
    <stop stop-color="white"/>
    <stop offset="1" stop-color="#CDD7FF"/>
  </linearGradient>
  <linearGradient id="paint28_linear" x1="1790.18" y1="1520.61" x2="1792.12" y2="1552.17"
                  gradientUnits="userSpaceOnUse">
    <stop stop-color="white"/>
    <stop offset="1" stop-color="#CDD7FF"/>
  </linearGradient>
  <linearGradient id="paint29_linear" x1="789.183" y1="913.61" x2="791.119" y2="945.172" gradientUnits="userSpaceOnUse">
    <stop stop-color="white"/>
    <stop offset="1" stop-color="#CDD7FF"/>
  </linearGradient>
  <linearGradient id="paint30_linear" x1="756.183" y1="1352.61" x2="758.119" y2="1384.17"
                  gradientUnits="userSpaceOnUse">
    <stop stop-color="white"/>
    <stop offset="1" stop-color="#CDD7FF"/>
  </linearGradient>
  <linearGradient id="paint31_linear" x1="1517.18" y1="977.61" x2="1519.12" y2="1009.17" gradientUnits="userSpaceOnUse">
    <stop stop-color="white"/>
    <stop offset="1" stop-color="#CDD7FF"/>
  </linearGradient>
  <linearGradient id="paint32_linear" x1="1512.18" y1="2072.61" x2="1514.12" y2="2104.17"
                  gradientUnits="userSpaceOnUse">
    <stop stop-color="white"/>
    <stop offset="1" stop-color="#CDD7FF"/>
  </linearGradient>
  <linearGradient id="paint33_linear" x1="1328.18" y1="1385.61" x2="1330.12" y2="1417.17"
                  gradientUnits="userSpaceOnUse">
    <stop stop-color="white"/>
    <stop offset="1" stop-color="#CDD7FF"/>
  </linearGradient>
  <linearGradient id="paint34_linear" x1="1445.18" y1="308.61" x2="1447.12" y2="340.172" gradientUnits="userSpaceOnUse">
    <stop stop-color="white"/>
    <stop offset="1" stop-color="#CDD7FF"/>
  </linearGradient>
  <linearGradient id="paint35_linear" x1="756.183" y1="520.61" x2="758.119" y2="552.172" gradientUnits="userSpaceOnUse">
    <stop stop-color="white"/>
    <stop offset="1" stop-color="#CDD7FF"/>
  </linearGradient>
  <linearGradient id="paint36_linear" x1="1512.18" y1="1662.61" x2="1514.12" y2="1694.17"
                  gradientUnits="userSpaceOnUse">
    <stop stop-color="white"/>
    <stop offset="1" stop-color="#CDD7FF"/>
  </linearGradient>
  <linearGradient id="paint37_linear" x1="1739.18" y1="702.61" x2="1741.12" y2="734.172" gradientUnits="userSpaceOnUse">
    <stop stop-color="white"/>
    <stop offset="1" stop-color="#CDD7FF"/>
  </linearGradient>
  <linearGradient id="paint38_linear" x1="1739.18" y1="960.61" x2="1741.12" y2="992.172" gradientUnits="userSpaceOnUse">
    <stop stop-color="white"/>
    <stop offset="1" stop-color="#CDD7FF"/>
  </linearGradient>
  <linearGradient id="paint39_linear" x1="1706.18" y1="292.61" x2="1708.12" y2="324.172" gradientUnits="userSpaceOnUse">
    <stop stop-color="white"/>
    <stop offset="1" stop-color="#CDD7FF"/>
  </linearGradient>
  <linearGradient id="paint40_linear" x1="1446.18" y1="79.6099" x2="1448.12" y2="111.172"
                  gradientUnits="userSpaceOnUse">
    <stop stop-color="white"/>
    <stop offset="1" stop-color="#CDD7FF"/>
  </linearGradient>
  <linearGradient id="paint41_linear" x1="499.183" y1="612.61" x2="501.119" y2="644.172" gradientUnits="userSpaceOnUse">
    <stop stop-color="white"/>
    <stop offset="1" stop-color="#CDD7FF"/>
  </linearGradient>
  <linearGradient id="paint42_linear" x1="1011.18" y1="537.61" x2="1013.12" y2="569.172" gradientUnits="userSpaceOnUse">
    <stop stop-color="white"/>
    <stop offset="1" stop-color="#CDD7FF"/>
  </linearGradient>
  <linearGradient id="paint43_linear" x1="225.708" y1="877.201" x2="225.708" y2="797.216"
                  gradientUnits="userSpaceOnUse">
    <stop stop-color="white"/>
    <stop offset="1" stop-color="#CDD7FF"/>
  </linearGradient>
  <linearGradient id="paint44_linear" x1="165.135" y1="862.712" x2="166.207" y2="880.19" gradientUnits="userSpaceOnUse">
    <stop stop-color="#EA5455"/>
    <stop offset="1" stop-color="#8C1BAB"/>
  </linearGradient>
  <linearGradient id="paint45_linear" x1="1203.96" y1="198.145" x2="1126.13" y2="216.566"
                  gradientUnits="userSpaceOnUse">
    <stop stop-color="white"/>
    <stop offset="1" stop-color="#CDD7FF"/>
  </linearGradient>
  <linearGradient id="paint46_linear" x1="1203.82" y1="260.427" x2="1220.58" y2="255.358"
                  gradientUnits="userSpaceOnUse">
    <stop stop-color="#EA5455"/>
    <stop offset="1" stop-color="#8C1BAB"/>
  </linearGradient>
  <linearGradient id="paint47_linear" x1="1540.94" y1="132.273" x2="1579.72" y2="98.1594"
                  gradientUnits="userSpaceOnUse">
    <stop stop-color="#9708CC"/>
    <stop offset="1" stop-color="#43CBFF" stop-opacity="0"/>
  </linearGradient>
  <linearGradient id="paint48_linear" x1="784.935" y1="1030.27" x2="823.721" y2="996.159"
                  gradientUnits="userSpaceOnUse">
    <stop stop-color="#9708CC"/>
    <stop offset="1" stop-color="#43CBFF" stop-opacity="0"/>
  </linearGradient>
  <linearGradient id="paint49_linear" x1="1813.65" y1="926.262" x2="1915.29" y2="836.872"
                  gradientUnits="userSpaceOnUse">
    <stop stop-color="#9708CC"/>
    <stop offset="1" stop-color="#43CBFF" stop-opacity="0"/>
  </linearGradient>
  <linearGradient id="paint50_linear" x1="893.654" y1="347.262" x2="995.287" y2="257.872"
                  gradientUnits="userSpaceOnUse">
    <stop stop-color="#9708CC"/>
    <stop offset="1" stop-color="#43CBFF" stop-opacity="0"/>
  </linearGradient>
  <linearGradient id="paint51_linear" x1="348.426" y1="1825.51" x2="333.656" y2="1668.08"
                  gradientUnits="userSpaceOnUse">
    <stop stop-color="white"/>
    <stop offset="1" stop-color="#CDD7FF"/>
  </linearGradient>
  <linearGradient id="paint52_linear" x1="330.544" y1="1762.67" x2="475.805" y2="1634.9" gradientUnits="userSpaceOnUse">
    <stop stop-color="#EA5455"/>
    <stop offset="1" stop-color="#8C1BAB"/>
  </linearGradient>
  <linearGradient id="paint53_linear" x1="366.967" y1="1741.65" x2="256.999" y2="1787.07"
                  gradientUnits="userSpaceOnUse">
    <stop stop-color="#EA5455"/>
    <stop offset="1" stop-color="#8C1BAB"/>
  </linearGradient>
  <linearGradient id="paint54_linear" x1="355.553" y1="1824.84" x2="340.782" y2="1667.41"
                  gradientUnits="userSpaceOnUse">
    <stop stop-color="white"/>
    <stop offset="1" stop-color="#CDD7FF"/>
  </linearGradient>
  <linearGradient id="paint55_linear" x1="1712.43" y1="471.508" x2="1697.66" y2="314.076"
                  gradientUnits="userSpaceOnUse">
    <stop stop-color="white"/>
    <stop offset="1" stop-color="#CDD7FF"/>
  </linearGradient>
  <linearGradient id="paint56_linear" x1="1694.54" y1="408.666" x2="1839.81" y2="280.902"
                  gradientUnits="userSpaceOnUse">
    <stop stop-color="#EA5455"/>
    <stop offset="1" stop-color="#8C1BAB"/>
  </linearGradient>
  <linearGradient id="paint57_linear" x1="1730.97" y1="387.654" x2="1621" y2="433.067" gradientUnits="userSpaceOnUse">
    <stop stop-color="#EA5455"/>
    <stop offset="1" stop-color="#8C1BAB"/>
  </linearGradient>
  <linearGradient id="paint58_linear" x1="1719.55" y1="470.839" x2="1704.78" y2="313.408"
                  gradientUnits="userSpaceOnUse">
    <stop stop-color="white"/>
    <stop offset="1" stop-color="#CDD7FF"/>
  </linearGradient>
  <linearGradient id="paint59_linear" x1="1681.12" y1="1936.04" x2="1755.52" y2="1827.1" gradientUnits="userSpaceOnUse">
    <stop stop-color="#9708CC"/>
    <stop offset="1" stop-color="#43CBFF"/>
  </linearGradient>
  <linearGradient id="paint60_linear" x1="452.381" y1="1243.65" x2="453.453" y2="1261.13"
                  gradientUnits="userSpaceOnUse">
    <stop stop-color="#EA5455"/>
    <stop offset="1" stop-color="#8C1BAB"/>
  </linearGradient>
  <linearGradient id="paint61_linear" x1="1269.38" y1="838.653" x2="1270.45" y2="856.132"
                  gradientUnits="userSpaceOnUse">
    <stop stop-color="#EA5455"/>
    <stop offset="1" stop-color="#8C1BAB"/>
  </linearGradient>
  <linearGradient id="paint62_linear" x1="1388.38" y1="538.653" x2="1389.45" y2="556.132"
                  gradientUnits="userSpaceOnUse">
    <stop stop-color="#EA5455"/>
    <stop offset="1" stop-color="#8C1BAB"/>
  </linearGradient>
  <linearGradient id="paint63_linear" x1="1135.38" y1="1628.65" x2="1136.45" y2="1646.13"
                  gradientUnits="userSpaceOnUse">
    <stop stop-color="#EA5455"/>
    <stop offset="1" stop-color="#8C1BAB"/>
  </linearGradient>
  <linearGradient id="paint64_linear" x1="802.381" y1="162.653" x2="803.453" y2="180.132"
                  gradientUnits="userSpaceOnUse">
    <stop stop-color="#EA5455"/>
    <stop offset="1" stop-color="#8C1BAB"/>
  </linearGradient>
  <clipPath id="clip0">
    <rect width="1920" height="2147" fill="white"/>
  </clipPath>
</defs>
</svg>
