<svg width="1371" height="1590" viewBox="0 0 1371 1590" fill="none" xmlns="http://www.w3.org/2000/svg">
<mask id="mask0" mask-type="alpha" maskUnits="userSpaceOnUse" x="0" y="0" width="1371" height="1368">
<path fill-rule="evenodd" clip-rule="evenodd" d="M1370.94 1368H1371V0H0V82C0.113134 82.4674 46.3556 273.488 60.9886 313.299C80.8638 367.507 96.764 402.128 96.764 402.128C96.764 402.128 112.21 338.353 129.246 292.799C129.246 292.799 136.514 423.88 153.664 461.462C153.664 461.462 167.52 427.297 178.082 395.409C178.082 395.409 211.359 549.266 230.098 573.182C230.098 573.182 255.311 527.628 260.99 466.131C260.99 466.131 269.962 546.989 282.115 573.182L298.356 518.518C298.356 518.518 328.452 670.097 356.845 697.43L381.264 600.628C381.264 600.628 401.593 749.93 417.039 773.846C417.039 773.846 442.252 696.405 446.341 643.904L459.288 728.178L478.823 650.737C478.823 650.737 499.152 768.038 511.304 794.345L529.135 723.737C529.135 723.737 552.645 845.593 566.501 867.345H550.26C550.26 867.345 557.528 904.926 566.501 922.009C566.501 922.009 581.947 894.677 590.919 858.234C590.919 858.234 597.392 933.397 606.365 941.369L618.517 892.399L647.819 992.617L655.996 947.063L677.121 1010.84C677.121 1010.84 686.093 985.784 698.245 937.953C698.245 937.953 708.807 977.812 716.076 985.784C716.076 985.784 731.522 960.729 733.907 940.23L719.256 949.341C719.256 949.341 741.176 910.621 741.971 878.733C741.971 878.733 749.239 923.148 763.095 937.953L780.131 869.622L790.693 903.787L839.416 682.738C839.416 682.738 859.746 816.097 873.601 833.179C873.601 833.179 887.457 760.294 888.252 735.239C888.252 735.239 906.992 813.819 917.554 828.624L1011.82 502.802C1011.82 502.802 1043.51 672.603 1055.66 723.851C1055.66 723.851 1180.82 413.972 1179.23 347.805C1179.23 347.805 1204.44 631.491 1249.07 726.128C1249.07 726.128 1367.78 311.118 1370.94 220.031V1368ZM1370.94 220.031V213.422C1371.02 215.383 1371.02 217.591 1370.94 220.031Z" fill="white"/>
</mask>
<g mask="url(#mask0)">
<path d="M1372 1368H0V1083V520.6V0H1372V1368Z" fill="url(#paint0_linear)"/>
<path opacity="0.63" d="M752.332 351.048C665.699 473.559 422.63 509.969 307.578 699.725C192.526 889.481 0.200195 1247.64 0.200195 1247.64V1470.61L89.4944 1404.19C89.4944 1404.19 767.787 389 865.667 268.03C963.547 147.061 1054.56 0 1054.56 0H930.92C930.92 0 824.454 249.055 752.332 351.048Z" fill="url(#paint1_linear)"/>
<path opacity="0.63" d="M1246.78 404.467C1246.78 404.467 1117.15 696.825 1061.96 817.726C1006.77 938.626 950.301 881.473 901.53 1006.77C852.76 1132.07 856.61 1257.36 773.186 1435.42C689.763 1613.47 445.909 1525.54 445.909 1525.54C445.909 1525.54 421.523 1450.8 426.657 1450.8C431.791 1450.8 809.123 696.825 861.744 597.907C914.365 498.989 1133.83 523.169 1200.57 272.575C1267.31 21.9819 1312.23 0 1312.23 0L1246.78 404.467Z" fill="#2A348F"/>
</g>
<path opacity="0.32" d="M1012 366L774.391 495.786C767.766 498.125 763 504.455 763 511.9C763 521.34 770.63 529 780.033 529C784.222 529 788.048 527.477 791.018 524.966L1012 366Z" fill="url(#paint2_linear)"/>
<path d="M951.443 440L953.171 438.892C954.057 438.316 955.187 438.25 956.139 438.693L958 439.557L956.892 437.829C956.316 436.943 956.25 435.813 956.693 434.861L957.557 433L955.829 434.108C954.943 434.684 953.813 434.75 952.861 434.307L951 433.443L952.108 435.171C952.684 436.057 952.75 437.187 952.307 438.139L951.443 440Z" fill="url(#paint3_linear)"/>
<path d="M456.38 437L457.861 436.051C458.62 435.557 459.589 435.5 460.405 435.88L462 436.62L461.051 435.139C460.557 434.38 460.5 433.411 460.88 432.595L461.62 431L460.139 431.949C459.38 432.443 458.411 432.5 457.595 432.12L456 431.38L456.949 432.861C457.443 433.62 457.5 434.589 457.12 435.405L456.38 437Z" fill="url(#paint4_linear)"/>
<path opacity="0.32" d="M795 418.3L796.86 418.24C797.82 418.22 798.72 418.68 799.26 419.46L800.3 421L800.24 419.14C800.22 418.18 800.68 417.28 801.46 416.74L803 415.7L801.14 415.76C800.18 415.78 799.28 415.32 798.74 414.54L797.7 413L797.76 414.86C797.78 415.82 797.32 416.72 796.54 417.26L795 418.3Z" fill="url(#paint5_linear)"/>
<path d="M954 215L957.569 227.301C959.418 233.632 964.368 238.582 970.699 240.431L983 244L970.699 247.569C964.368 249.418 959.418 254.368 957.569 260.699L954 273L950.431 260.699C948.582 254.368 943.632 249.418 937.301 247.569L925 244L937.301 240.431C943.632 238.582 948.582 233.632 950.431 227.301L954 215Z" fill="url(#paint6_linear)"/>
<path d="M542 644L545.569 656.301C547.418 662.632 552.368 667.582 558.699 669.431L571 673L558.699 676.569C552.368 678.418 547.418 683.368 545.569 689.699L542 702L538.431 689.699C536.582 683.368 531.632 678.418 525.301 676.569L513 673L525.301 669.431C531.632 667.582 536.582 662.632 538.431 656.301L542 644Z" fill="url(#paint7_linear)"/>
<path opacity="0.32" d="M1025.5 412L1027.91 420.268C1029.15 424.52 1032.48 427.849 1036.73 429.095L1045 431.5L1036.73 433.905C1032.48 435.151 1029.15 438.48 1027.91 442.732L1025.5 451L1023.09 442.732C1021.85 438.48 1018.52 435.151 1014.27 433.905L1006 431.5L1014.27 429.095C1018.52 427.849 1021.85 424.52 1023.09 420.268L1025.5 412Z" fill="url(#paint8_linear)"/>
<path d="M921.438 388L923.686 390.099C924.852 391.18 926.484 391.604 928.011 391.201L931 390.438L928.901 392.686C927.82 393.852 927.396 395.484 927.799 397.011L928.562 400L926.314 397.901C925.148 396.82 923.516 396.396 921.989 396.799L919 397.562L921.099 395.315C922.18 394.148 922.604 392.516 922.201 390.989L921.438 388Z" fill="url(#paint9_linear)"/>
<path d="M992.456 319L992.065 320.717C991.87 321.609 992.13 322.543 992.761 323.196L994 324.457L992.283 324.065C991.391 323.87 990.457 324.13 989.804 324.761L988.544 326L988.935 324.283C989.13 323.391 988.87 322.457 988.239 321.804L987 320.543L988.717 320.935C989.609 321.13 990.543 320.87 991.196 320.239L992.456 319Z" fill="url(#paint10_linear)"/>
<path d="M726.399 388L725.706 390.958C725.35 392.49 725.79 394.084 726.881 395.217L729 397.399L726.042 396.706C724.511 396.35 722.916 396.79 721.783 397.881L719.601 400L720.294 397.042C720.65 395.51 720.21 393.916 719.119 392.783L717 390.601L719.958 391.294C721.489 391.65 723.084 391.21 724.217 390.119L726.399 388Z" fill="url(#paint11_linear)"/>
<path d="M351.059 264L349.193 272.153C348.228 276.348 349.402 280.759 352.338 283.852L358 289.842L350.094 287.917C346.026 286.923 341.748 288.134 338.75 291.161L332.941 297L334.807 288.847C335.772 284.652 334.598 280.241 331.662 277.148L326 271.158L333.906 273.083C337.974 274.077 342.252 272.866 345.25 269.839L351.059 264Z" fill="url(#paint12_linear)"/>
<path d="M288.399 373L287.706 375.958C287.35 377.49 287.79 379.084 288.881 380.217L291 382.399L288.042 381.706C286.511 381.35 284.916 381.79 283.783 382.881L281.601 385L282.294 382.042C282.65 380.511 282.21 378.916 281.119 377.783L279 375.601L281.958 376.294C283.489 376.65 285.084 376.21 286.217 375.119L288.399 373Z" fill="url(#paint13_linear)"/>
<path d="M490 65.7405L492.948 66.3841C494.464 66.7162 496.041 66.2388 497.142 65.1384L499.26 63L498.616 65.9481C498.284 67.4637 498.761 69.0415 499.862 70.1418L502 72.2595L499.052 71.6159C497.536 71.2837 495.959 71.7612 494.858 72.8616L492.74 75L493.384 72.0519C493.716 70.5363 493.239 68.9585 492.138 67.8581L490 65.7405Z" fill="url(#paint14_linear)"/>
<path d="M455 142.207L467.024 144.831C473.219 146.186 479.672 144.272 484.146 139.755L492.793 131L490.169 143.024C488.814 149.219 490.728 155.672 495.245 160.146L504 168.793L491.976 166.169C485.781 164.814 479.328 166.728 474.854 171.245L466.207 180L468.831 167.976C470.186 161.781 468.272 155.328 463.755 150.854L455 142.207Z" fill="url(#paint15_linear)"/>
<path opacity="0.32" d="M322.829 166L323.768 168.945C324.259 170.46 325.476 171.634 327.012 172.04L330 172.829L327.055 173.768C325.54 174.259 324.366 175.476 323.96 177.012L323.171 180L322.232 177.055C321.741 175.54 320.524 174.366 318.988 173.96L316 173.171L318.945 172.232C320.46 171.741 321.634 170.524 322.04 168.988L322.829 166Z" fill="url(#paint16_linear)"/>
<path opacity="0.32" d="M519.829 181L520.768 183.945C521.259 185.46 522.476 186.634 524.012 187.04L527 187.829L524.055 188.768C522.54 189.259 521.366 190.476 520.96 192.012L520.171 195L519.232 192.055C518.741 190.54 517.524 189.366 515.988 188.96L513 188.171L515.945 187.232C517.46 186.741 518.634 185.524 519.04 183.988L519.829 181Z" fill="url(#paint17_linear)"/>
<path d="M846.399 113L845.706 115.958C845.35 117.49 845.79 119.084 846.881 120.217L849 122.399L846.042 121.706C844.51 121.35 842.916 121.79 841.783 122.881L839.601 125L840.294 122.042C840.65 120.51 840.21 118.916 839.119 117.783L837 115.601L839.958 116.294C841.49 116.65 843.084 116.21 844.217 115.119L846.399 113Z" fill="url(#paint18_linear)"/>
<path d="M356.3 404L361.163 408.748C363.678 411.187 367.211 412.137 370.536 411.23L377 409.504L372.428 414.554C370.079 417.165 369.165 420.835 370.038 424.288L371.7 431L366.837 426.252C364.322 423.813 360.789 422.863 357.464 423.77L351 425.496L355.572 420.446C357.921 417.835 358.835 414.165 357.962 410.712L356.3 404Z" fill="url(#paint19_linear)"/>
<path opacity="0.32" d="M679.438 107L681.686 109.099C682.852 110.18 684.484 110.604 686.011 110.201L689 109.438L686.901 111.686C685.82 112.852 685.396 114.484 685.799 116.011L686.562 119L684.314 116.901C683.148 115.82 681.516 115.396 679.989 115.799L677 116.562L679.099 114.314C680.18 113.148 680.604 111.516 680.201 109.989L679.438 107Z" fill="url(#paint20_linear)"/>
<path d="M397.369 252L395.87 253.41C395.099 254.138 394.019 254.402 392.983 254.138L391 253.631L392.41 255.129C393.138 255.901 393.402 256.981 393.138 258.017L392.631 260L394.13 258.59C394.901 257.862 395.981 257.598 397.017 257.862L399 258.369L397.59 256.871C396.862 256.099 396.598 255.019 396.862 253.983L397.369 252Z" fill="url(#paint21_linear)"/>
<path d="M521.744 252L522.202 253.962C522.441 254.986 522.136 256.054 521.417 256.796L520 258.256L521.962 257.798C522.986 257.559 524.055 257.864 524.796 258.583L526.256 260L525.798 258.038C525.559 257.014 525.864 255.946 526.583 255.204L528 253.744L526.038 254.202C525.014 254.441 523.945 254.136 523.204 253.417L521.744 252Z" fill="url(#paint22_linear)"/>
<path d="M418.526 326L418.926 327.962C419.136 328.986 418.869 330.055 418.24 330.796L417 332.256L418.717 331.798C419.613 331.559 420.548 331.864 421.196 332.583L422.474 334L422.074 332.038C421.864 331.014 422.131 329.945 422.76 329.204L424 327.744L422.283 328.202C421.387 328.441 420.452 328.136 419.804 327.417L418.526 326Z" fill="url(#paint23_linear)"/>
<path d="M613.369 110L611.871 111.41C611.099 112.138 610.019 112.402 608.984 112.138L607 111.631L608.41 113.129C609.138 113.901 609.402 114.981 609.138 116.017L608.631 118L610.13 116.59C610.901 115.862 611.981 115.598 613.017 115.862L615 116.369L613.59 114.871C612.862 114.099 612.598 113.019 612.862 111.983L613.369 110Z" fill="url(#paint24_linear)"/>
<path d="M807.369 339L805.871 340.41C805.099 341.138 804.019 341.402 802.984 341.138L801 340.631L802.41 342.129C803.138 342.901 803.402 343.981 803.138 345.016L802.631 347L804.13 345.59C804.901 344.862 805.981 344.598 807.017 344.862L809 345.369L807.59 343.87C806.862 343.099 806.598 342.019 806.862 340.983L807.369 339Z" fill="url(#paint25_linear)"/>
<path opacity="0.32" d="M836.526 187L836.926 188.962C837.136 189.986 836.869 191.054 836.24 191.796L835 193.256L836.717 192.798C837.613 192.559 838.548 192.864 839.196 193.583L840.474 195L840.074 193.038C839.864 192.014 840.131 190.946 840.76 190.204L842 188.744L840.283 189.202C839.387 189.441 838.452 189.136 837.804 188.417L836.526 187Z" fill="url(#paint26_linear)"/>
<path d="M938.795 132L940.112 135.171C940.802 136.814 940.656 138.707 939.757 140.213L938 143.133L940.907 141.696C942.412 140.943 944.148 141.103 945.529 142.084L948.205 144L946.888 140.829C946.198 139.186 946.344 137.293 947.243 135.787L949 132.867L946.093 134.304C944.588 135.057 942.852 134.897 941.471 133.916L938.795 132Z" fill="url(#paint27_linear)"/>
<path d="M810.744 221L811.202 222.717C811.441 223.613 811.136 224.548 810.417 225.196L809 226.474L810.962 226.074C811.986 225.864 813.054 226.131 813.796 226.76L815.256 228L814.798 226.283C814.559 225.387 814.864 224.452 815.583 223.804L817 222.526L815.038 222.926C814.014 223.136 812.946 222.869 812.204 222.24L810.744 221Z" fill="url(#paint28_linear)"/>
<path opacity="0.32" d="M892.247 64L893.127 67.9553C893.588 69.9888 893.022 72.1341 891.661 73.6313L889 76.5363L892.708 75.5978C894.614 75.1061 896.626 75.7095 898.029 77.162L900.753 80L899.873 76.0447C899.412 74.0112 899.978 71.8659 901.339 70.3687L904 67.4637L900.292 68.4022C898.385 68.8939 896.374 68.2905 894.971 66.838L892.247 64Z" fill="url(#paint29_linear)"/>
<path d="M673 45.8211L671.027 46.2548C670.008 46.4716 668.946 46.168 668.23 45.4309L666.821 44L667.255 45.9729C667.471 46.9919 667.168 48.0542 666.431 48.7696L665 50.1789L666.973 49.7453C667.992 49.5285 669.054 49.832 669.77 50.5691L671.179 52L670.745 50.0271C670.528 49.0081 670.832 47.9458 671.569 47.2304L673 45.8211Z" fill="url(#paint30_linear)"/>
<path d="M598 522.821L596.027 523.255C595.008 523.472 593.946 523.168 593.23 522.431L591.821 521L592.255 522.973C592.471 523.992 592.168 525.054 591.431 525.77L590 527.179L591.973 526.745C592.992 526.528 594.054 526.832 594.77 527.569L596.179 529L595.745 527.027C595.528 526.008 595.832 524.946 596.569 524.23L598 522.821Z" fill="url(#paint31_linear)"/>
<path d="M779.596 110L778.998 111.903C778.698 112.886 777.907 113.634 776.924 113.891L775 114.404L776.903 115.002C777.886 115.302 778.634 116.093 778.891 117.076L779.404 119L780.002 117.097C780.302 116.114 781.093 115.366 782.076 115.109L784 114.596L782.097 113.998C781.114 113.698 780.366 112.907 780.109 111.924L779.596 110Z" fill="url(#paint32_linear)"/>
<path d="M444.744 76L445.202 77.9618C445.441 78.9864 445.136 80.0545 444.417 80.7956L443 82.2561L444.962 81.7984C445.986 81.5586 447.055 81.8637 447.796 82.5831L449.256 84L448.798 82.0381C448.559 81.0136 448.864 79.9455 449.583 79.2044L451 77.7439L449.038 78.2016C448.014 78.4414 446.945 78.1362 446.204 77.4169L444.744 76Z" fill="url(#paint33_linear)"/>
<path d="M585.319 392L581.953 394.989C580.224 396.515 577.778 397.108 575.466 396.557L571 395.476L574.165 398.656C575.78 400.288 576.409 402.598 575.825 404.782L574.681 409L578.047 406.011C579.776 404.485 582.222 403.891 584.534 404.443L589 405.524L585.835 402.344C584.219 400.712 583.591 398.401 584.175 396.218L585.319 392Z" fill="url(#paint34_linear)"/>
<path d="M551.369 72L549.871 73.4105C549.099 74.1377 548.019 74.4022 546.984 74.1377L545 73.6309L546.41 75.1295C547.138 75.9008 547.402 76.9807 547.138 78.0165L546.631 80L548.129 78.5895C548.901 77.8623 549.981 77.5978 551.016 77.8623L553 78.3691L551.59 76.8705C550.862 76.0992 550.598 75.0193 550.862 73.9835L551.369 72Z" fill="url(#paint35_linear)"/>
<path d="M498.369 352L496.871 353.41C496.099 354.138 495.019 354.402 493.984 354.138L492 353.631L493.41 355.129C494.138 355.901 494.402 356.981 494.138 358.017L493.631 360L495.129 358.59C495.901 357.862 496.981 357.598 498.016 357.862L500 358.369L498.59 356.87C497.862 356.099 497.598 355.019 497.862 353.983L498.369 352Z" fill="url(#paint36_linear)"/>
<path d="M748.369 605L746.871 606.41C746.099 607.138 745.019 607.402 743.984 607.138L742 606.631L743.41 608.129C744.138 608.901 744.402 609.981 744.138 611.017L743.631 613L745.129 611.59C745.901 610.862 746.981 610.598 748.016 610.862L750 611.369L748.59 609.87C747.862 609.099 747.598 608.019 747.862 606.983L748.369 605Z" fill="url(#paint37_linear)"/>
<path d="M594.889 142L595.121 142.986C595.237 143.488 595.082 144.029 594.715 144.396L594 145.111L594.986 144.879C595.488 144.763 596.029 144.918 596.396 145.285L597.111 146L596.879 145.014C596.763 144.512 596.918 143.971 597.285 143.604L598 142.889L597.014 143.121C596.512 143.237 595.971 143.082 595.604 142.715L594.889 142Z" fill="url(#paint38_linear)"/>
<path d="M854.744 260L855.202 261.962C855.441 262.986 855.136 264.054 854.417 264.796L853 266.256L854.962 265.798C855.986 265.559 857.054 265.864 857.796 266.583L859.256 268L858.798 266.038C858.559 265.014 858.864 263.945 859.583 263.204L861 261.744L859.038 262.202C858.014 262.441 856.946 262.136 856.204 261.417L854.744 260Z" fill="url(#paint39_linear)"/>
<path d="M751.744 334L752.202 335.962C752.441 336.986 752.136 338.055 751.417 338.796L750 340.256L751.962 339.798C752.986 339.559 754.055 339.864 754.796 340.583L756.256 342L755.798 340.038C755.559 339.014 755.864 337.945 756.583 337.204L758 335.744L756.038 336.202C755.014 336.441 753.945 336.136 753.204 335.417L751.744 334Z" fill="url(#paint40_linear)"/>
<path d="M1045.37 195L1043.87 196.41C1043.1 197.138 1042.02 197.402 1040.98 197.138L1039 196.631L1040.41 198.13C1041.14 198.901 1041.4 199.981 1041.14 201.017L1040.63 203L1042.13 201.59C1042.9 200.862 1043.98 200.598 1045.02 200.862L1047 201.369L1045.59 199.871C1044.86 199.099 1044.6 198.019 1044.86 196.983L1045.37 195Z" fill="url(#paint41_linear)"/>
<path d="M689.573 644L688.262 645.41C687.587 646.138 686.642 646.402 685.736 646.138L684 645.631L685.234 647.129C685.871 647.901 686.102 648.981 685.87 650.016L685.427 652L686.738 650.59C687.413 649.862 688.358 649.598 689.264 649.862L691 650.369L689.766 648.87C689.129 648.099 688.898 647.019 689.129 645.983L689.573 644Z" fill="url(#paint42_linear)"/>
<path opacity="0.32" d="M1169.74 195L1170.2 196.962C1170.44 197.986 1170.14 199.054 1169.42 199.796L1168 201.256L1169.96 200.798C1170.99 200.559 1172.05 200.864 1172.8 201.583L1174.26 203L1173.8 201.038C1173.56 200.014 1173.86 198.946 1174.58 198.204L1176 196.744L1174.04 197.202C1173.01 197.441 1171.95 197.136 1171.2 196.417L1169.74 195Z" fill="url(#paint43_linear)"/>
<path d="M1094.56 181L1095.78 186.18C1096.41 188.845 1095.63 191.661 1093.72 193.617L1090 197.443L1095.18 196.218C1097.85 195.595 1100.66 196.368 1102.62 198.281L1106.44 202L1105.22 196.82C1104.59 194.155 1105.37 191.339 1107.28 189.383L1111 185.557L1105.82 186.782C1103.15 187.405 1100.34 186.632 1098.38 184.719L1094.56 181Z" fill="url(#paint44_linear)"/>
<path d="M1132.74 248L1133.2 249.962C1133.44 250.986 1133.14 252.054 1132.42 252.796L1131 254.256L1132.96 253.798C1133.99 253.559 1135.05 253.864 1135.8 254.583L1137.26 256L1136.8 254.038C1136.56 253.014 1136.86 251.946 1137.58 251.204L1139 249.744L1137.04 250.202C1136.01 250.441 1134.95 250.136 1134.2 249.417L1132.74 248Z" fill="url(#paint45_linear)"/>
<path opacity="0.32" d="M1225.46 72L1226.4 75.9553C1226.89 77.9888 1226.29 80.1341 1224.84 81.6313L1222 84.5363L1225.96 83.5978C1227.99 83.1061 1230.13 83.7095 1231.63 85.162L1234.54 88L1233.6 84.0447C1233.11 82.0112 1233.71 79.8659 1235.16 78.3687L1238 75.4637L1234.04 76.4022C1232.01 76.8939 1229.87 76.2905 1228.37 74.838L1225.46 72Z" fill="url(#paint46_linear)"/>
<path d="M1009 52.2069L1005.82 52.9589C1004.17 53.3349 1002.47 52.8041 1001.28 51.4992L998.978 49L999.676 52.4281C1000.03 54.1975 999.532 56.0332 998.321 57.316L996 59.7931L999.183 59.0411C1000.83 58.6651 1002.53 59.1959 1003.72 60.5008L1006.02 63L1005.32 59.5719C1004.97 57.8025 1005.47 55.9668 1006.68 54.6841L1009 52.2069Z" fill="url(#paint47_linear)"/>
<path d="M1113.6 118L1113 119.903C1112.7 120.886 1111.91 121.634 1110.92 121.891L1109 122.404L1110.9 123.002C1111.89 123.302 1112.63 124.093 1112.89 125.076L1113.4 127L1114 125.097C1114.3 124.114 1115.09 123.366 1116.08 123.109L1118 122.596L1116.1 121.998C1115.11 121.698 1114.37 120.907 1114.11 119.924L1113.6 118Z" fill="url(#paint48_linear)"/>
<path d="M987.743 123L986.347 127.63C985.628 130.023 983.788 131.862 981.483 132.505L977 133.745L981.42 135.207C983.704 135.961 985.459 137.888 986.073 140.303L987.257 145L988.653 140.37C989.372 137.977 991.211 136.138 993.517 135.495L998 134.255L993.58 132.793C991.296 132.039 989.541 130.112 988.927 127.697L987.743 123Z" fill="url(#paint49_linear)"/>
<path d="M1091.52 270L1088.34 273.165C1086.71 274.781 1084.4 275.409 1082.22 274.825L1078 273.681L1080.99 277.047C1082.51 278.776 1083.11 281.222 1082.56 283.534L1081.48 288L1084.66 284.835C1086.29 283.219 1088.6 282.591 1090.78 283.175L1095 284.319L1092.01 280.953C1090.48 279.224 1089.89 276.778 1090.44 274.466L1091.52 270Z" fill="url(#paint50_linear)"/>
<path d="M231.573 347L230.262 348.41C229.587 349.138 228.642 349.402 227.736 349.138L226 348.631L227.234 350.129C227.871 350.901 228.102 351.981 227.871 353.016L227.427 355L228.738 353.59C229.413 352.862 230.358 352.598 231.264 352.862L233 353.369L231.766 351.87C231.129 351.099 230.898 350.019 231.129 348.983L231.573 347Z" fill="url(#paint51_linear)"/>
<path opacity="0.32" d="M260.744 195L261.202 196.962C261.441 197.986 261.136 199.054 260.417 199.796L259 201.256L260.962 200.798C261.986 200.559 263.054 200.864 263.796 201.583L265.256 203L264.798 201.038C264.559 200.014 264.864 198.946 265.583 198.204L267 196.744L265.038 197.202C264.014 197.441 262.946 197.136 262.204 196.417L260.744 195Z" fill="url(#paint52_linear)"/>
<path d="M374.744 156L375.202 157.962C375.441 158.986 375.136 160.055 374.417 160.796L373 162.256L374.962 161.798C375.986 161.559 377.054 161.864 377.796 162.583L379.256 164L378.798 162.038C378.559 161.014 378.864 159.946 379.583 159.204L381 157.744L379.038 158.202C378.014 158.441 376.946 158.136 376.204 157.417L374.744 156Z" fill="url(#paint53_linear)"/>
<path d="M223.526 248L223.926 249.962C224.136 250.986 223.869 252.054 223.24 252.796L222 254.256L223.717 253.798C224.613 253.559 225.548 253.864 226.196 254.583L227.474 256L227.074 254.038C226.864 253.014 227.131 251.946 227.76 251.204L229 249.744L227.283 250.202C226.387 250.441 225.452 250.136 224.804 249.417L223.526 248Z" fill="url(#paint54_linear)"/>
<path opacity="0.32" d="M316.247 72L317.127 75.9553C317.588 77.9888 317.022 80.1341 315.661 81.6313L313 84.5363L316.708 83.5978C318.615 83.1061 320.626 83.7095 322.029 85.162L324.753 88L323.873 84.0447C323.412 82.0112 323.978 79.8659 325.339 78.3687L328 75.4637L324.292 76.4022C322.385 76.8939 320.374 76.2905 318.971 74.838L316.247 72Z" fill="url(#paint55_linear)"/>
<path d="M203.596 118L202.998 119.903C202.698 120.886 201.907 121.634 200.924 121.891L199 122.404L200.903 123.002C201.886 123.302 202.634 124.093 202.891 125.076L203.404 127L204.002 125.097C204.302 124.114 205.093 123.366 206.076 123.109L208 122.596L206.097 121.998C205.114 121.698 204.366 120.907 204.109 119.924L203.596 118Z" fill="url(#paint56_linear)"/>
<path d="M1126.5 280C1162.67 280 1192 250.899 1192 215C1192 179.102 1162.67 150 1126.5 150C1090.33 150 1061 179.102 1061 215C1061 250.899 1090.33 280 1126.5 280Z" fill="url(#paint57_linear)"/>
<path d="M500.068 315.227C491.862 291.303 552.473 241.892 655.826 206.498C696.555 192.546 736.576 183.472 770.256 180.455C775.227 180.006 780.047 179.706 784.718 179.513C811.563 178.486 830.931 182.124 840.187 189.592C842.458 188.351 844.729 187.132 847 185.89C836.78 175.833 815.184 170.997 784.439 172.174C747.375 173.564 700.84 183.301 653.427 199.543C552.644 234.06 482.242 285.932 493.105 317.602C495.826 325.499 503.324 331.298 514.594 335C518.793 333.588 522.992 332.197 527.17 330.763C512.151 328.067 502.66 322.738 500.068 315.227Z" fill="url(#paint58_linear)"/>
<path d="M673 352C726.019 352 769 309.019 769 256C769 202.981 726.019 160 673 160C619.981 160 577 202.981 577 256C577 309.019 619.981 352 673 352Z" fill="url(#paint59_linear)"/>
<path d="M655.421 325.962C626.581 325.962 655.314 316.435 669.424 286.205C683.556 255.974 647.361 284.192 630.322 280.617C613.283 277.041 633.294 257.323 646.014 237.84C658.756 218.358 637.976 225.08 610.654 228.442C586.901 231.353 641.482 183.567 628.676 171C595.218 188.385 573.817 224.759 577.388 264.667C582.091 317.398 628.612 356.342 681.29 351.611C693.39 350.519 704.764 347.2 715.047 342.126C713.892 338.401 713.828 334.333 716.565 329.88C730.076 307.764 684.261 325.962 655.421 325.962Z" fill="url(#paint60_linear)"/>
<path d="M846.336 186C844.072 187.241 841.808 188.46 839.544 189.701C842.15 191.819 844.008 194.214 844.947 196.931C849.155 209.253 835.572 227.821 807.658 247.907C778.185 269.107 736.303 289.621 689.702 305.622C619.052 329.902 560.192 336.661 527.537 330.8C523.372 332.255 519.186 333.624 515 335.036C529.801 339.913 551.115 341.196 576.786 338.886C609.698 335.934 649.721 327.121 692.073 312.553C739.336 296.317 781.901 275.481 811.929 253.854C843.111 231.414 857.292 210.344 851.867 194.535C850.778 191.369 848.899 188.524 846.336 186Z" fill="url(#paint61_linear)"/>
<path d="M157.5 125C171.583 125 183 113.583 183 99.5C183 85.4167 171.583 74 157.5 74C143.417 74 132 85.4167 132 99.5C132 113.583 143.417 125 157.5 125Z" fill="url(#paint62_linear)"/>
<path opacity="0.32" d="M282 143L410.058 136.247C413.36 136.615 416.684 134.883 418.207 131.658C420.136 127.589 418.421 122.741 414.411 120.793C412.61 119.927 410.68 119.797 408.9 120.273L282 143Z" fill="url(#paint63_linear)"/>
<path d="M410.5 136C414.642 136 418 132.418 418 128C418 123.582 414.642 120 410.5 120C406.358 120 403 123.582 403 128C403 132.418 406.358 136 410.5 136Z" fill="url(#paint64_linear)"/>
<path d="M341.185 282L286 378.608L367.216 417.585L415 504" stroke="url(#paint65_linear)" stroke-width="0.941" stroke-miterlimit="10"/>
<path d="M1002 56L987.261 133.249L943 138" stroke="url(#paint66_linear)" stroke-width="0.941" stroke-miterlimit="10"/>
<path d="M934.092 1585.65C908.143 1495.27 929.705 1134.99 929.705 1134.99L720.481 1028.43V1018.4L710.577 1023.42L700.674 1018.4V1028.43L491.45 1134.99C491.45 1134.99 513.012 1495.27 487.062 1585.65C485.809 1589.79 503.86 1589.04 503.86 1589.04H700.549H720.355H917.044C917.294 1589.04 935.346 1589.79 934.092 1585.65Z" fill="url(#paint67_linear)"/>
<path d="M575 1215H531V1589H575V1215Z" fill="url(#paint68_linear)"/>
<path d="M648 1215H603V1589H648V1215Z" fill="url(#paint69_linear)"/>
<path d="M728 1215H683V1589H728V1215Z" fill="url(#paint70_linear)"/>
<path d="M808 1219H763V1589H808V1219Z" fill="url(#paint71_linear)"/>
<path d="M888 1215H843V1589H888V1215Z" fill="url(#paint72_linear)"/>
<path d="M924.565 1231.77C926.821 1175.1 929.203 1134.99 929.203 1134.99L719.979 1028.43V1018.4L710.076 1023.42L700.172 1018.4V1028.43L490.948 1134.99C490.948 1134.99 493.33 1174.98 495.587 1231.77H924.565Z" fill="url(#paint73_linear)"/>
<path d="M720 1203H714V1589H720V1203Z" fill="#19114C"/>
<path d="M825.406 1071.68C827.914 1047.49 816.255 1032.07 816.255 1032.07L739.285 1035.95L725.746 1059.4C715.09 1058.39 704.435 1057.39 694.406 1056.64L682.372 1035.95L605.401 1032.07C605.401 1032.07 593.618 1047.36 596.25 1071.68C596.501 1073.69 596.626 1075.57 596.877 1077.32C596.877 1080.83 597.504 1084.97 599.008 1090.11C600.888 1098.26 602.643 1100.14 602.643 1100.14C603.396 1101.52 604.649 1103.02 606.279 1104.78C615.555 1116.56 641.379 1148.4 665.072 1170.97C694.657 1199.17 711.956 1214.22 720.857 1214.84C729.757 1215.47 743.547 1187.26 743.547 1187.26C743.547 1187.26 743.171 1191.02 752.824 1191.02C762.476 1191.02 816.757 1106.03 819.264 1100.14C819.264 1100.14 820.517 1098.76 822.022 1093.24C823.024 1090.24 824.027 1086.73 824.153 1083.47C824.403 1080.21 824.905 1076.32 825.406 1071.68Z" fill="url(#paint74_radial)"/>
<path d="M625.333 1052.63C625.333 1052.63 656.923 1105.53 670.713 1123.58C684.502 1141.63 713.586 1170.21 720.606 1168.46C727.626 1166.7 738.031 1126.59 746.931 1129.1C755.832 1131.6 758.088 1143.39 763.855 1137.5C769.621 1131.6 794.944 1085.6 796.448 1067.8C797.952 1050.12 797.952 1034.58 797.952 1034.58L625.333 1052.63Z" fill="url(#paint75_linear)"/>
<path opacity="0.38" d="M710.076 1103.15C765.947 1103.15 811.24 1080.02 811.24 1051.5C811.24 1022.98 765.947 999.852 710.076 999.852C654.204 999.852 608.911 1022.98 608.911 1051.5C608.911 1080.02 654.204 1103.15 710.076 1103.15Z" fill="url(#paint76_radial)"/>
<path d="M652.035 877.125C652.035 877.125 643.636 851.426 636.992 845.158C630.348 838.891 619.817 838.891 613.424 845.158C607.031 851.426 592.865 889.912 632.729 898.561C672.594 907.211 652.035 877.125 652.035 877.125Z" fill="url(#paint77_linear)"/>
<path d="M637.744 887.655C633.858 866.595 627.84 846.788 619.692 856.566C614.302 863.837 616.307 865.467 617.31 865.843C618.313 866.219 618.94 864.339 620.444 861.581C621.949 858.823 627.464 848.167 634.359 887.655C635.362 892.294 636.741 891.416 636.741 891.416C636.741 891.416 638.371 890.664 637.744 887.655Z" fill="#BE1E2D"/>
<path d="M766.864 877.125C766.864 877.125 775.263 851.426 781.907 845.158C788.551 838.891 799.081 838.891 805.474 845.158C811.867 851.426 826.033 889.912 786.169 898.561C746.305 907.211 766.864 877.125 766.864 877.125Z" fill="url(#paint78_linear)"/>
<path d="M781.029 887.655C784.915 866.595 790.933 846.788 799.081 856.566C804.471 863.837 802.466 865.467 801.463 865.843C800.46 866.219 799.833 864.339 798.329 861.581C796.824 858.823 791.309 848.167 784.414 887.655C783.411 892.294 782.032 891.416 782.032 891.416C782.032 891.416 780.402 890.664 781.029 887.655Z" fill="#BE1E2D"/>
<path d="M783.411 886.652C780.653 881.512 775.388 878.253 769.496 878.253L711.58 877.752H710.703H709.825L651.91 878.253C646.143 878.253 640.753 881.512 637.995 886.652L577.948 998.096C577.948 998.096 584.216 1032.57 609.914 1050.12C655.796 1081.46 700.674 1085.97 709.825 1086.6V1086.73C709.825 1086.73 710.076 1086.73 710.703 1086.73C711.204 1086.73 711.58 1086.73 711.58 1086.73V1086.6C720.732 1085.97 765.61 1081.46 811.491 1050.12C837.19 1032.57 843.458 998.096 843.458 998.096L783.411 886.652Z" fill="url(#paint79_linear)"/>
<path opacity="0.68" d="M769.496 878.253L711.581 877.752H710.703H709.826L651.91 878.253C646.143 878.253 640.753 881.512 637.995 886.652L578.199 997.72C605.151 1023.42 654.542 1040.59 710.954 1040.59C767.115 1040.59 816.255 1023.54 843.333 998.096L783.286 886.652C780.653 881.512 775.263 878.378 769.496 878.253Z" fill="url(#paint80_radial)"/>
<path d="M755.206 955.349C752.322 955.349 749.564 955.85 747.057 956.602C736.652 958.107 718.726 960.489 707.945 960.614C697.29 960.739 679.614 958.357 669.209 956.728C666.577 955.85 663.694 955.349 660.685 955.349C646.519 955.349 634.986 965.879 634.986 978.916C634.986 991.954 646.519 1002.48 660.685 1002.48C665.198 1002.48 669.46 1001.36 673.221 999.475L660.685 1047.11C660.685 1057.39 684.628 1086.85 695.033 1086.85H719.729C730.008 1086.85 755.331 1057.39 755.331 1047.11L741.416 998.598C745.428 1000.98 750.066 1002.23 755.206 1002.23C769.371 1002.23 780.904 991.703 780.904 978.666C780.904 965.879 769.371 955.349 755.206 955.349Z" fill="url(#paint81_linear)"/>
<path d="M689.392 1038.59C689.392 1038.59 687.762 1046.23 690.646 1048.49C693.529 1050.75 707.945 1051.5 707.945 1051.5C707.945 1051.5 724.618 1051.37 726.247 1047.61C727.877 1043.85 726.498 1038.71 726.498 1038.71L710.828 1037.71L700.173 1039.34L689.392 1038.59Z" fill="#19114C"/>
<path d="M733.643 1055.39C728.002 1053.13 729.256 1065.79 720.857 1066.79C714.463 1067.55 711.455 1063.53 710.327 1061.53C711.079 1057.89 711.58 1053.38 711.956 1050.12C712.834 1048.49 712.959 1045.73 716.093 1045.11C720.481 1044.1 727.375 1044.86 727.375 1040.84V1036.83C727.375 1033.2 724.492 1030.31 720.857 1030.31H695.033C691.397 1030.31 688.514 1033.2 688.514 1036.83V1039.84C688.639 1041.22 689.517 1043.35 693.152 1043.73C698.543 1044.35 702.304 1045.61 702.93 1048.49C703.432 1051.62 704.309 1057.39 705.312 1061.78C704.059 1063.91 701.05 1067.17 695.158 1066.54C686.634 1065.54 688.013 1052.88 682.371 1055.13C678.861 1056.51 683.124 1072.18 694.907 1072.43C702.429 1072.68 706.19 1070.55 707.945 1068.92C709.574 1070.55 713.335 1072.81 721.233 1072.68C732.891 1072.43 737.153 1056.76 733.643 1055.39Z" fill="url(#paint82_linear)"/>
<path d="M660.559 985.059C664.021 985.059 666.827 982.253 666.827 978.791C666.827 975.329 664.021 972.523 660.559 972.523C657.098 972.523 654.292 975.329 654.292 978.791C654.292 982.253 657.098 985.059 660.559 985.059Z" fill="#262262"/>
<path d="M755.205 985.059C758.667 985.059 761.473 982.253 761.473 978.791C761.473 975.329 758.667 972.523 755.205 972.523C751.743 972.523 748.937 975.329 748.937 978.791C748.937 982.253 751.743 985.059 755.205 985.059Z" fill="#262262"/>
<path d="M828.54 815.574L712.458 768.188C711.706 767.937 710.828 767.937 710.076 768.188L591.737 815.824C590.484 816.326 589.731 817.579 589.731 818.958C589.857 820.337 590.86 821.466 592.239 821.716L710.201 847.916C710.452 847.916 710.703 848.042 710.828 848.042C711.079 848.042 711.33 848.042 711.58 847.916L828.039 821.466C829.418 821.215 830.295 820.087 830.421 818.708C830.546 817.329 829.794 816.075 828.54 815.574Z" fill="url(#paint83_linear)"/>
<path d="M764.106 828.987C764.106 828.987 754.954 817.454 710.452 817.329C673.22 817.203 657.551 827.984 657.551 827.984L657.3 878.002L763.855 878.504L764.106 828.987Z" fill="url(#paint84_radial)"/>
<path d="M601.891 935.292C602.016 934.414 602.142 933.411 602.142 932.409C602.142 926.015 599.259 920.875 595.623 920.875C591.988 920.875 589.104 926.015 589.104 932.409C589.104 933.411 589.23 934.414 589.355 935.292H601.891Z" fill="url(#paint85_linear)"/>
<path d="M595.624 921.878C597.977 921.878 599.886 919.577 599.886 916.738C599.886 913.9 597.977 911.599 595.624 911.599C593.27 911.599 591.361 913.9 591.361 916.738C591.361 919.577 593.27 921.878 595.624 921.878Z" fill="url(#paint86_linear)"/>
<path d="M595.623 912.476C597.504 912.476 599.008 910.972 599.008 909.091V813.819C599.008 811.938 597.504 810.434 595.623 810.434C593.743 810.434 592.239 811.938 592.239 813.819V909.091C592.239 910.972 593.743 912.476 595.623 912.476Z" fill="url(#paint87_linear)"/>
<path d="M645.391 942.311C643.009 945.947 646.895 949.332 650.28 947.2C653.664 945.069 651.282 942.437 654.667 940.682C658.052 938.927 662.063 937.924 661.687 936.42C661.311 934.79 651.032 933.787 645.391 942.311Z" fill="#BE1E2D"/>
<path d="M767.992 942.437C762.351 933.787 752.071 934.915 751.695 936.545C751.319 938.049 755.33 939.052 758.715 940.807C762.1 942.562 759.718 945.195 763.103 947.326C766.362 949.332 770.374 946.072 767.992 942.437Z" fill="#BE1E2D"/>
<path d="M700.549 1036.08H694.406C693.529 1036.08 692.776 1035.33 692.776 1034.45C692.776 1033.57 693.529 1032.82 694.406 1032.82H700.549C701.426 1032.82 702.178 1033.57 702.178 1034.45C702.304 1035.45 701.551 1036.08 700.549 1036.08Z" fill="#F1F2F2"/>
<path d="M491.327 1134.99C491.327 1134.99 419.621 1266.36 412.852 1284.17C406.083 1301.97 386.151 1390.59 387.028 1402.25C387.906 1413.91 378.504 1537.64 503.988 1540.52C629.472 1543.41 503.988 1540.52 503.988 1540.52C503.988 1540.52 541.846 1441.74 538.462 1429.83C535.077 1417.92 509.88 1346.22 509.88 1342.96C509.88 1339.57 500.478 1264.86 503.988 1248.31C507.373 1231.77 491.327 1134.99 491.327 1134.99Z" fill="url(#paint88_linear)"/>
<path d="M929.958 1134.86C929.958 1134.86 1001.66 1266.24 1008.43 1284.04C1015.08 1301.84 1035.13 1390.47 1034.38 1402.13C1033.5 1413.79 1042.91 1537.52 917.422 1540.4C791.937 1543.28 917.422 1540.4 917.422 1540.4C917.422 1540.4 879.563 1441.62 882.948 1429.71C886.333 1417.67 911.404 1346.09 911.404 1342.83C911.404 1339.57 920.806 1264.73 917.296 1248.19C913.786 1231.64 929.958 1134.86 929.958 1134.86Z" fill="url(#paint89_linear)"/>
<path d="M532.319 1243.42C532.319 1243.42 609.665 1197.29 654.669 1219.23C699.673 1241.17 711.081 1333.18 711.081 1333.18L697.918 1344.59L580.707 1314.5L518.655 1279.03L532.319 1243.42Z" fill="url(#paint90_linear)"/>
<path d="M708.323 1311.49C708.323 1311.49 710.454 1236.15 781.282 1227.38C852.11 1218.6 901 1241.42 901 1241.42L711.081 1333.18L708.323 1311.49Z" fill="url(#paint91_linear)"/>
<path d="M727.002 1334.81L968.443 1258.97C958.791 1231.77 898.618 1222.74 831.175 1238.79C761.852 1255.33 711.332 1292.19 718.227 1321.15C719.48 1326.41 722.489 1330.92 727.002 1334.81Z" fill="url(#paint92_linear)"/>
<path d="M693.28 1341.58L701.805 1339.32C702.808 1337.57 703.435 1335.69 703.936 1333.68C710.831 1304.72 660.311 1267.87 590.988 1251.32C531.066 1237.03 476.786 1242.67 458.734 1263.1L693.28 1341.58Z" fill="url(#paint93_linear)"/>
<path d="M689.394 1374.67L455.349 1303.72L433.035 1248.31L684.63 1318.14L689.394 1374.67Z" fill="url(#paint94_linear)"/>
<path d="M727.252 1374.17L954.402 1305.35L983.36 1248.06L732.016 1317.76L727.252 1374.17Z" fill="url(#paint95_linear)"/>
<path d="M730.888 1386.33L689.394 1385.58L675.73 1333.18H740.165L730.888 1386.33Z" fill="url(#paint96_linear)"/>
<path d="M983.361 1245.3V1245.05C982.609 1242.3 979.725 1240.79 976.968 1241.54L734.899 1310.99C732.643 1311.62 731.139 1313.88 731.264 1316.13C731.264 1316.51 731.389 1316.88 731.389 1317.13L732.392 1323.4H683.377L684.631 1318.14C684.756 1317.89 684.881 1317.76 684.881 1317.51V1317.26C685.007 1316.88 685.007 1316.51 685.007 1316.13C685.132 1313.88 683.628 1311.62 681.371 1310.99L439.303 1241.67C436.545 1240.92 433.787 1242.42 432.91 1245.18V1245.43C432.158 1248.19 433.662 1250.95 436.42 1251.82L677.234 1320.9L675.605 1326.91C675.103 1327.79 674.727 1328.92 674.727 1330.05C674.727 1333.56 677.61 1336.31 680.995 1336.31H735.276C738.786 1336.31 741.543 1333.43 741.543 1330.05C741.543 1329.55 741.418 1329.04 741.293 1328.54L740.165 1320.64L979.725 1251.95C982.609 1250.82 984.113 1248.06 983.361 1245.3Z" fill="#00AEEF"/>
<path d="M541.895 1551.54C560.062 1551.54 574.789 1515.96 574.789 1472.05C574.789 1428.15 560.062 1392.56 541.895 1392.56C523.727 1392.56 509 1428.15 509 1472.05C509 1515.96 523.727 1551.54 541.895 1551.54Z" fill="url(#paint97_linear)"/>
<path d="M590.696 1360.38C570.959 1356.27 552.892 1361.79 548.277 1372.91C547.884 1373.72 547.688 1374.62 547.491 1375.52C547.197 1376.82 547.197 1378.13 547.295 1379.53C546.117 1384.64 543.858 1391.16 539.538 1392.66C532.075 1395.17 520.194 1402.58 520.881 1416.52C521.47 1430.45 527.656 1447.69 545.429 1452.1C563.202 1456.52 580.386 1452.1 589.223 1443.78C598.061 1435.46 622.02 1397.37 622.02 1397.37C623.198 1395.67 624.082 1393.76 624.474 1391.66C627.126 1378.83 611.906 1364.89 590.696 1360.38Z" fill="url(#paint98_linear)"/>
<path d="M589.027 1342.24L588.045 1342.04C585.689 1341.64 583.528 1343.24 583.136 1345.55L580.975 1358.58C580.583 1360.98 582.154 1363.19 584.412 1363.59L585.394 1363.79C587.751 1364.19 589.911 1362.59 590.304 1360.28L592.464 1347.25C592.955 1344.95 591.384 1342.64 589.027 1342.24Z" fill="url(#paint99_linear)"/>
<path d="M605.916 1347.15L604.934 1346.85C602.676 1346.05 600.319 1347.25 599.533 1349.56L595.311 1362.09C594.526 1364.39 595.704 1366.8 597.962 1367.6L598.944 1367.9C601.203 1368.7 603.559 1367.5 604.345 1365.19L608.567 1352.66C609.353 1350.46 608.174 1347.95 605.916 1347.15Z" fill="url(#paint100_linear)"/>
<path d="M622.707 1355.87L621.823 1355.37C619.761 1354.17 617.208 1354.87 616.03 1356.97L609.549 1368.4C608.371 1370.51 609.058 1373.11 611.12 1374.32L612.004 1374.82C614.066 1376.02 616.619 1375.32 617.797 1373.21L624.278 1361.79C625.358 1359.78 624.671 1357.07 622.707 1355.87Z" fill="url(#paint101_linear)"/>
<path d="M569.29 1341.24H568.308C565.952 1341.24 564.086 1343.14 564.086 1345.55V1358.78C564.086 1361.18 565.952 1363.09 568.308 1363.09H569.29C571.647 1363.09 573.512 1361.18 573.512 1358.78V1345.55C573.611 1343.24 571.647 1341.24 569.29 1341.24Z" fill="url(#paint102_linear)"/>
<path d="M867.305 1551.44C885.472 1551.44 900.2 1515.85 900.2 1471.95C900.2 1428.05 885.472 1392.46 867.305 1392.46C849.138 1392.46 834.411 1428.05 834.411 1471.95C834.411 1515.85 849.138 1551.44 867.305 1551.44Z" fill="url(#paint103_linear)"/>
<path d="M818.405 1360.28C838.142 1356.17 856.209 1361.69 860.824 1372.81C861.217 1373.61 861.414 1374.52 861.61 1375.42C861.904 1376.72 861.904 1378.03 861.806 1379.43C862.985 1384.54 865.243 1391.06 869.564 1392.56C877.026 1395.07 888.907 1402.48 888.22 1416.42C887.631 1430.35 881.445 1447.59 863.672 1452C845.899 1456.41 828.715 1452 819.878 1443.68C811.041 1435.36 787.082 1397.27 787.082 1397.27C785.903 1395.57 785.02 1393.66 784.627 1391.56C782.074 1378.83 797.195 1364.79 818.405 1360.28Z" fill="url(#paint104_linear)"/>
<path d="M820.075 1342.14L821.057 1341.94C823.413 1341.54 825.573 1343.14 825.966 1345.45L828.126 1358.48C828.519 1360.88 826.948 1363.09 824.69 1363.49L823.708 1363.69C821.351 1364.09 819.191 1362.49 818.798 1360.18L816.638 1347.15C816.245 1344.85 817.718 1342.54 820.075 1342.14Z" fill="url(#paint105_linear)"/>
<path d="M803.185 1347.15L804.167 1346.85C806.426 1346.05 808.782 1347.25 809.568 1349.56L813.79 1362.09C814.576 1364.39 813.397 1366.8 811.139 1367.6L810.157 1367.9C807.899 1368.7 805.542 1367.5 804.756 1365.19L800.534 1352.66C799.749 1350.36 801.025 1347.85 803.185 1347.15Z" fill="url(#paint106_linear)"/>
<path d="M786.492 1355.77L787.376 1355.27C789.438 1354.07 791.991 1354.77 793.17 1356.87L799.65 1368.3C800.829 1370.41 800.141 1373.01 798.079 1374.22L797.195 1374.72C795.133 1375.92 792.58 1375.22 791.402 1373.11L784.921 1361.69C783.743 1359.68 784.43 1356.97 786.492 1355.77Z" fill="url(#paint107_linear)"/>
<path d="M839.811 1341.14H840.793C843.15 1341.14 845.015 1343.04 845.015 1345.45V1358.68C845.015 1361.08 843.15 1362.99 840.793 1362.99H839.811C837.455 1362.99 835.589 1361.08 835.589 1358.68V1345.45C835.589 1343.14 837.455 1341.14 839.811 1341.14Z" fill="url(#paint108_linear)"/>
<defs>
<linearGradient id="paint0_linear" x1="686" y1="1368" x2="686" y2="0" gradientUnits="userSpaceOnUse">
<stop stop-color="#7D0BD7"/>
<stop offset="1" stop-color="#2F0A3C"/>
</linearGradient>
<linearGradient id="paint1_linear" x1="369.5" y1="850.5" x2="527.379" y2="2.21003e-05" gradientUnits="userSpaceOnUse">
<stop stop-color="#662D91"/>
<stop offset="0.65625" stop-color="#0056A6"/>
<stop offset="1" stop-color="#3405BA"/>
</linearGradient>
<linearGradient id="paint2_linear" x1="887.503" y1="518.773" x2="887.503" y2="375.352" gradientUnits="userSpaceOnUse">
<stop stop-color="white"/>
<stop offset="1" stop-color="#CDD7FF"/>
</linearGradient>
<linearGradient id="paint3_linear" x1="950.819" y1="440.208" x2="957.168" y2="433.788" gradientUnits="userSpaceOnUse">
<stop stop-color="white"/>
<stop offset="1" stop-color="#CDD7FF"/>
</linearGradient>
<linearGradient id="paint4_linear" x1="455.826" y1="437.183" x2="461.268" y2="431.68" gradientUnits="userSpaceOnUse">
<stop stop-color="white"/>
<stop offset="1" stop-color="#CDD7FF"/>
</linearGradient>
<linearGradient id="paint5_linear" x1="794.397" y1="418.015" x2="802.292" y2="415.981" gradientUnits="userSpaceOnUse">
<stop stop-color="white"/>
<stop offset="1" stop-color="#CDD7FF"/>
</linearGradient>
<linearGradient id="paint6_linear" x1="951.957" y1="210.756" x2="955.395" y2="266.795" gradientUnits="userSpaceOnUse">
<stop stop-color="white"/>
<stop offset="1" stop-color="#CDD7FF"/>
</linearGradient>
<linearGradient id="paint7_linear" x1="539.957" y1="639.756" x2="543.395" y2="695.795" gradientUnits="userSpaceOnUse">
<stop stop-color="white"/>
<stop offset="1" stop-color="#CDD7FF"/>
</linearGradient>
<linearGradient id="paint8_linear" x1="1024.12" y1="409.142" x2="1026.43" y2="446.82" gradientUnits="userSpaceOnUse">
<stop stop-color="white"/>
<stop offset="1" stop-color="#CDD7FF"/>
</linearGradient>
<linearGradient id="paint9_linear" x1="920.552" y1="387.263" x2="928.133" y2="398.44" gradientUnits="userSpaceOnUse">
<stop stop-color="white"/>
<stop offset="1" stop-color="#CDD7FF"/>
</linearGradient>
<linearGradient id="paint10_linear" x1="992.432" y1="318.346" x2="989.059" y2="325.353" gradientUnits="userSpaceOnUse">
<stop stop-color="white"/>
<stop offset="1" stop-color="#CDD7FF"/>
</linearGradient>
<linearGradient id="paint11_linear" x1="726.555" y1="386.891" x2="720.691" y2="398.9" gradientUnits="userSpaceOnUse">
<stop stop-color="white"/>
<stop offset="1" stop-color="#CDD7FF"/>
</linearGradient>
<linearGradient id="paint12_linear" x1="351.327" y1="260.908" x2="334.899" y2="293.532" gradientUnits="userSpaceOnUse">
<stop stop-color="white"/>
<stop offset="1" stop-color="#CDD7FF"/>
</linearGradient>
<linearGradient id="paint13_linear" x1="288.533" y1="371.887" x2="282.669" y2="383.896" gradientUnits="userSpaceOnUse">
<stop stop-color="white"/>
<stop offset="1" stop-color="#CDD7FF"/>
</linearGradient>
<linearGradient id="paint14_linear" x1="488.993" y1="65.7769" x2="500.98" y2="71.3627" gradientUnits="userSpaceOnUse">
<stop stop-color="white"/>
<stop offset="1" stop-color="#CDD7FF"/>
</linearGradient>
<linearGradient id="paint15_linear" x1="450.578" y1="142.068" x2="499.516" y2="164.872" gradientUnits="userSpaceOnUse">
<stop stop-color="white"/>
<stop offset="1" stop-color="#CDD7FF"/>
</linearGradient>
<linearGradient id="paint16_linear" x1="322.279" y1="164.963" x2="323.428" y2="178.508" gradientUnits="userSpaceOnUse">
<stop stop-color="white"/>
<stop offset="1" stop-color="#CDD7FF"/>
</linearGradient>
<linearGradient id="paint17_linear" x1="519.268" y1="179.96" x2="520.416" y2="193.505" gradientUnits="userSpaceOnUse">
<stop stop-color="white"/>
<stop offset="1" stop-color="#CDD7FF"/>
</linearGradient>
<linearGradient id="paint18_linear" x1="846.579" y1="111.864" x2="840.715" y2="123.873" gradientUnits="userSpaceOnUse">
<stop stop-color="white"/>
<stop offset="1" stop-color="#CDD7FF"/>
</linearGradient>
<linearGradient id="paint19_linear" x1="354.308" y1="402.497" x2="371.599" y2="427.044" gradientUnits="userSpaceOnUse">
<stop stop-color="white"/>
<stop offset="1" stop-color="#CDD7FF"/>
</linearGradient>
<linearGradient id="paint20_linear" x1="678.534" y1="106.265" x2="686.114" y2="117.441" gradientUnits="userSpaceOnUse">
<stop stop-color="white"/>
<stop offset="1" stop-color="#CDD7FF"/>
</linearGradient>
<linearGradient id="paint21_linear" x1="397.887" y1="251.748" x2="392.845" y2="259.182" gradientUnits="userSpaceOnUse">
<stop stop-color="white"/>
<stop offset="1" stop-color="#CDD7FF"/>
</linearGradient>
<linearGradient id="paint22_linear" x1="522.014" y1="251.18" x2="525.913" y2="259.164" gradientUnits="userSpaceOnUse">
<stop stop-color="white"/>
<stop offset="1" stop-color="#CDD7FF"/>
</linearGradient>
<linearGradient id="paint23_linear" x1="418.756" y1="325.176" x2="422.964" y2="332.715" gradientUnits="userSpaceOnUse">
<stop stop-color="white"/>
<stop offset="1" stop-color="#CDD7FF"/>
</linearGradient>
<linearGradient id="paint24_linear" x1="613.896" y1="109.768" x2="608.854" y2="117.201" gradientUnits="userSpaceOnUse">
<stop stop-color="white"/>
<stop offset="1" stop-color="#CDD7FF"/>
</linearGradient>
<linearGradient id="paint25_linear" x1="807.882" y1="338.767" x2="802.84" y2="346.201" gradientUnits="userSpaceOnUse">
<stop stop-color="white"/>
<stop offset="1" stop-color="#CDD7FF"/>
</linearGradient>
<linearGradient id="paint26_linear" x1="836.765" y1="186.168" x2="840.973" y2="193.708" gradientUnits="userSpaceOnUse">
<stop stop-color="white"/>
<stop offset="1" stop-color="#CDD7FF"/>
</linearGradient>
<linearGradient id="paint27_linear" x1="938.49" y1="130.561" x2="947.908" y2="141.993" gradientUnits="userSpaceOnUse">
<stop stop-color="white"/>
<stop offset="1" stop-color="#CDD7FF"/>
</linearGradient>
<linearGradient id="paint28_linear" x1="811.029" y1="220.261" x2="814.154" y2="227.577" gradientUnits="userSpaceOnUse">
<stop stop-color="white"/>
<stop offset="1" stop-color="#CDD7FF"/>
</linearGradient>
<linearGradient id="paint29_linear" x1="892.462" y1="62.3904" x2="900.597" y2="78.0111" gradientUnits="userSpaceOnUse">
<stop stop-color="white"/>
<stop offset="1" stop-color="#CDD7FF"/>
</linearGradient>
<linearGradient id="paint30_linear" x1="673.9" y1="45.8505" x2="665.891" y2="49.5831" gradientUnits="userSpaceOnUse">
<stop stop-color="white"/>
<stop offset="1" stop-color="#CDD7FF"/>
</linearGradient>
<linearGradient id="paint31_linear" x1="598.9" y1="522.851" x2="590.891" y2="526.583" gradientUnits="userSpaceOnUse">
<stop stop-color="white"/>
<stop offset="1" stop-color="#CDD7FF"/>
</linearGradient>
<linearGradient id="paint32_linear" x1="779.777" y1="109.313" x2="779.04" y2="117.995" gradientUnits="userSpaceOnUse">
<stop stop-color="white"/>
<stop offset="1" stop-color="#CDD7FF"/>
</linearGradient>
<linearGradient id="paint33_linear" x1="445.005" y1="75.1661" x2="448.904" y2="83.1505" gradientUnits="userSpaceOnUse">
<stop stop-color="white"/>
<stop offset="1" stop-color="#CDD7FF"/>
</linearGradient>
<linearGradient id="paint34_linear" x1="586.608" y1="391.29" x2="576.125" y2="407.655" gradientUnits="userSpaceOnUse">
<stop stop-color="white"/>
<stop offset="1" stop-color="#CDD7FF"/>
</linearGradient>
<linearGradient id="paint35_linear" x1="551.893" y1="71.7742" x2="546.851" y2="79.2078" gradientUnits="userSpaceOnUse">
<stop stop-color="white"/>
<stop offset="1" stop-color="#CDD7FF"/>
</linearGradient>
<linearGradient id="paint36_linear" x1="498.878" y1="351.767" x2="493.836" y2="359.201" gradientUnits="userSpaceOnUse">
<stop stop-color="white"/>
<stop offset="1" stop-color="#CDD7FF"/>
</linearGradient>
<linearGradient id="paint37_linear" x1="748.878" y1="604.767" x2="743.836" y2="612.201" gradientUnits="userSpaceOnUse">
<stop stop-color="white"/>
<stop offset="1" stop-color="#CDD7FF"/>
</linearGradient>
<linearGradient id="paint38_linear" x1="594.688" y1="141.634" x2="596.607" y2="145.62" gradientUnits="userSpaceOnUse">
<stop stop-color="white"/>
<stop offset="1" stop-color="#CDD7FF"/>
</linearGradient>
<linearGradient id="paint39_linear" x1="855.017" y1="259.154" x2="858.916" y2="267.138" gradientUnits="userSpaceOnUse">
<stop stop-color="white"/>
<stop offset="1" stop-color="#CDD7FF"/>
</linearGradient>
<linearGradient id="paint40_linear" x1="752.01" y1="333.172" x2="755.909" y2="341.157" gradientUnits="userSpaceOnUse">
<stop stop-color="white"/>
<stop offset="1" stop-color="#CDD7FF"/>
</linearGradient>
<linearGradient id="paint41_linear" x1="1045.89" y1="194.798" x2="1040.85" y2="202.232" gradientUnits="userSpaceOnUse">
<stop stop-color="white"/>
<stop offset="1" stop-color="#CDD7FF"/>
</linearGradient>
<linearGradient id="paint42_linear" x1="690.022" y1="643.783" x2="684.767" y2="650.563" gradientUnits="userSpaceOnUse">
<stop stop-color="white"/>
<stop offset="1" stop-color="#CDD7FF"/>
</linearGradient>
<linearGradient id="paint43_linear" x1="1170.04" y1="194.165" x2="1173.94" y2="202.149" gradientUnits="userSpaceOnUse">
<stop stop-color="white"/>
<stop offset="1" stop-color="#CDD7FF"/>
</linearGradient>
<linearGradient id="paint44_linear" x1="1094.76" y1="178.934" x2="1105.02" y2="199.936" gradientUnits="userSpaceOnUse">
<stop stop-color="white"/>
<stop offset="1" stop-color="#CDD7FF"/>
</linearGradient>
<linearGradient id="paint45_linear" x1="1133.05" y1="247.151" x2="1136.95" y2="255.136" gradientUnits="userSpaceOnUse">
<stop stop-color="white"/>
<stop offset="1" stop-color="#CDD7FF"/>
</linearGradient>
<linearGradient id="paint46_linear" x1="1225.72" y1="70.3869" x2="1233.55" y2="86.4222" gradientUnits="userSpaceOnUse">
<stop stop-color="white"/>
<stop offset="1" stop-color="#CDD7FF"/>
</linearGradient>
<linearGradient id="paint47_linear" x1="1010.38" y1="52.2224" x2="997.069" y2="57.9836" gradientUnits="userSpaceOnUse">
<stop stop-color="white"/>
<stop offset="1" stop-color="#CDD7FF"/>
</linearGradient>
<linearGradient id="paint48_linear" x1="1113.77" y1="117.313" x2="1113.03" y2="125.995" gradientUnits="userSpaceOnUse">
<stop stop-color="white"/>
<stop offset="1" stop-color="#CDD7FF"/>
</linearGradient>
<linearGradient id="paint49_linear" x1="988.374" y1="121.365" x2="986.486" y2="142.616" gradientUnits="userSpaceOnUse">
<stop stop-color="white"/>
<stop offset="1" stop-color="#CDD7FF"/>
</linearGradient>
<linearGradient id="paint50_linear" x1="1092.74" y1="269.27" x2="1081.16" y2="285.393" gradientUnits="userSpaceOnUse">
<stop stop-color="white"/>
<stop offset="1" stop-color="#CDD7FF"/>
</linearGradient>
<linearGradient id="paint51_linear" x1="232.033" y1="346.742" x2="226.778" y2="353.522" gradientUnits="userSpaceOnUse">
<stop stop-color="white"/>
<stop offset="1" stop-color="#CDD7FF"/>
</linearGradient>
<linearGradient id="paint52_linear" x1="260.989" y1="194.177" x2="264.887" y2="202.161" gradientUnits="userSpaceOnUse">
<stop stop-color="white"/>
<stop offset="1" stop-color="#CDD7FF"/>
</linearGradient>
<linearGradient id="paint53_linear" x1="375.002" y1="155.17" x2="378.901" y2="163.154" gradientUnits="userSpaceOnUse">
<stop stop-color="white"/>
<stop offset="1" stop-color="#CDD7FF"/>
</linearGradient>
<linearGradient id="paint54_linear" x1="223.745" y1="247.164" x2="227.953" y2="254.703" gradientUnits="userSpaceOnUse">
<stop stop-color="white"/>
<stop offset="1" stop-color="#CDD7FF"/>
</linearGradient>
<linearGradient id="paint55_linear" x1="316.434" y1="70.3995" x2="324.57" y2="86.0202" gradientUnits="userSpaceOnUse">
<stop stop-color="white"/>
<stop offset="1" stop-color="#CDD7FF"/>
</linearGradient>
<linearGradient id="paint56_linear" x1="203.8" y1="117.314" x2="203.064" y2="125.996" gradientUnits="userSpaceOnUse">
<stop stop-color="white"/>
<stop offset="1" stop-color="#CDD7FF"/>
</linearGradient>
<linearGradient id="paint57_linear" x1="1114.98" y1="231.886" x2="1246.96" y2="37.186" gradientUnits="userSpaceOnUse">
<stop stop-color="#9708CC"/>
<stop offset="1" stop-color="#43CBFF"/>
</linearGradient>
<linearGradient id="paint58_linear" x1="682.556" y1="388.483" x2="656.172" y2="106.933" gradientUnits="userSpaceOnUse">
<stop stop-color="white"/>
<stop offset="1" stop-color="#CDD7FF"/>
</linearGradient>
<linearGradient id="paint59_linear" x1="650.411" y1="275.856" x2="910.664" y2="46.9519" gradientUnits="userSpaceOnUse">
<stop stop-color="#EA5455"/>
<stop offset="1" stop-color="#8C1BAB"/>
</linearGradient>
<linearGradient id="paint60_linear" x1="715.583" y1="238.601" x2="519.025" y2="319.658" gradientUnits="userSpaceOnUse">
<stop stop-color="#EA5455"/>
<stop offset="1" stop-color="#8C1BAB"/>
</linearGradient>
<linearGradient id="paint61_linear" x1="695.131" y1="387.305" x2="668.683" y2="105.867" gradientUnits="userSpaceOnUse">
<stop stop-color="white"/>
<stop offset="1" stop-color="#CDD7FF"/>
</linearGradient>
<linearGradient id="paint62_linear" x1="151.485" y1="104.778" x2="220.595" y2="43.9928" gradientUnits="userSpaceOnUse">
<stop stop-color="#9708CC"/>
<stop offset="1" stop-color="#43CBFF" stop-opacity="0"/>
</linearGradient>
<linearGradient id="paint63_linear" x1="366.09" y1="102.907" x2="336.428" y2="164.356" gradientUnits="userSpaceOnUse">
<stop stop-color="white"/>
<stop offset="1" stop-color="#CDD7FF"/>
</linearGradient>
<linearGradient id="paint64_linear" x1="406.967" y1="136.416" x2="413.07" y2="122.29" gradientUnits="userSpaceOnUse">
<stop stop-color="#EA5455"/>
<stop offset="1" stop-color="#8C1BAB"/>
</linearGradient>
<linearGradient id="paint65_linear" x1="340.426" y1="281.498" x2="354.318" y2="508.15" gradientUnits="userSpaceOnUse">
<stop stop-color="white"/>
<stop offset="1" stop-color="#CDD7FF"/>
</linearGradient>
<linearGradient id="paint66_linear" x1="970.55" y1="57.683" x2="975.411" y2="137.018" gradientUnits="userSpaceOnUse">
<stop stop-color="white"/>
<stop offset="1" stop-color="#CDD7FF"/>
</linearGradient>
<linearGradient id="paint67_linear" x1="710.69" y1="1018.44" x2="710.69" y2="1589.1" gradientUnits="userSpaceOnUse">
<stop offset="0.3757" stop-color="#19114C"/>
<stop offset="0.388" stop-color="#1C1652"/>
<stop offset="0.436" stop-color="#232367"/>
<stop offset="0.4838" stop-color="#282D78"/>
<stop offset="0.5307" stop-color="#293384"/>
<stop offset="0.5762" stop-color="#2A378C"/>
<stop offset="0.6189" stop-color="#2B3990"/>
<stop offset="0.7232" stop-color="#292A71"/>
<stop offset="0.7919" stop-color="#262262"/>
<stop offset="0.8456" stop-color="#252160"/>
<stop offset="0.907" stop-color="#221D5A"/>
<stop offset="0.9719" stop-color="#1C1651"/>
<stop offset="1" stop-color="#19114C"/>
</linearGradient>
<linearGradient id="paint68_linear" x1="553" y1="1215.01" x2="553" y2="1588.96" gradientUnits="userSpaceOnUse">
<stop offset="0.072973" stop-color="#19114C"/>
<stop offset="0.091585" stop-color="#1C1652"/>
<stop offset="0.1642" stop-color="#232367"/>
<stop offset="0.2364" stop-color="#282D78"/>
<stop offset="0.3072" stop-color="#293384"/>
<stop offset="0.376" stop-color="#2A378C"/>
<stop offset="0.4405" stop-color="#2B3990"/>
<stop offset="0.7778" stop-color="#292A71"/>
<stop offset="1" stop-color="#19114C"/>
</linearGradient>
<linearGradient id="paint69_linear" x1="625.444" y1="1215.01" x2="625.444" y2="1588.96" gradientUnits="userSpaceOnUse">
<stop offset="0.072973" stop-color="#19114C"/>
<stop offset="0.091585" stop-color="#1C1652"/>
<stop offset="0.1642" stop-color="#232367"/>
<stop offset="0.2364" stop-color="#282D78"/>
<stop offset="0.3072" stop-color="#293384"/>
<stop offset="0.376" stop-color="#2A378C"/>
<stop offset="0.4405" stop-color="#2B3990"/>
<stop offset="0.7778" stop-color="#292A71"/>
<stop offset="1" stop-color="#19114C"/>
</linearGradient>
<linearGradient id="paint70_linear" x1="705.538" y1="1215.01" x2="705.538" y2="1588.96" gradientUnits="userSpaceOnUse">
<stop offset="0.072973" stop-color="#19114C"/>
<stop offset="0.091585" stop-color="#1C1652"/>
<stop offset="0.1642" stop-color="#232367"/>
<stop offset="0.2364" stop-color="#282D78"/>
<stop offset="0.3072" stop-color="#293384"/>
<stop offset="0.376" stop-color="#2A378C"/>
<stop offset="0.4405" stop-color="#2B3990"/>
<stop offset="0.7778" stop-color="#292A71"/>
<stop offset="1" stop-color="#19114C"/>
</linearGradient>
<linearGradient id="paint71_linear" x1="785.505" y1="1219.01" x2="785.505" y2="1588.96" gradientUnits="userSpaceOnUse">
<stop offset="0.072973" stop-color="#19114C"/>
<stop offset="0.091585" stop-color="#1C1652"/>
<stop offset="0.1642" stop-color="#232367"/>
<stop offset="0.2364" stop-color="#282D78"/>
<stop offset="0.3072" stop-color="#293384"/>
<stop offset="0.376" stop-color="#2A378C"/>
<stop offset="0.4405" stop-color="#2B3990"/>
<stop offset="0.7778" stop-color="#292A71"/>
<stop offset="1" stop-color="#19114C"/>
</linearGradient>
<linearGradient id="paint72_linear" x1="865.523" y1="1215.01" x2="865.523" y2="1588.96" gradientUnits="userSpaceOnUse">
<stop offset="0.072973" stop-color="#19114C"/>
<stop offset="0.091585" stop-color="#1C1652"/>
<stop offset="0.1642" stop-color="#232367"/>
<stop offset="0.2364" stop-color="#282D78"/>
<stop offset="0.3072" stop-color="#293384"/>
<stop offset="0.376" stop-color="#2A378C"/>
<stop offset="0.4405" stop-color="#2B3990"/>
<stop offset="0.7778" stop-color="#292A71"/>
<stop offset="1" stop-color="#19114C"/>
</linearGradient>
<linearGradient id="paint73_linear" x1="710.068" y1="1018.44" x2="710.068" y2="1231.77" gradientUnits="userSpaceOnUse">
<stop stop-color="#2B3990"/>
<stop offset="0.4095" stop-color="#2A378D"/>
<stop offset="0.5812" stop-color="#2A3587"/>
<stop offset="0.7085" stop-color="#2A317E"/>
<stop offset="0.813" stop-color="#292B72"/>
<stop offset="0.9039" stop-color="#272363"/>
<stop offset="0.9108" stop-color="#262262"/>
</linearGradient>
<radialGradient id="paint74_radial" cx="0" cy="0" r="1" gradientUnits="userSpaceOnUse" gradientTransform="translate(710.691 1123.51) scale(103.878 311.634)">
<stop offset="0.3027" stop-color="#EF4136"/>
<stop offset="0.8973" stop-color="#BE1E2D"/>
</radialGradient>
<linearGradient id="paint75_linear" x1="711.595" y1="1034.51" x2="711.595" y2="1168.47" gradientUnits="userSpaceOnUse">
<stop offset="0.2216" stop-color="#BE1E2D" stop-opacity="0"/>
<stop offset="0.773" stop-color="#F15A29" stop-opacity="0.7"/>
<stop offset="1" stop-color="#F7941D" stop-opacity="0.7"/>
</linearGradient>
<radialGradient id="paint76_radial" cx="0" cy="0" r="1" gradientUnits="userSpaceOnUse" gradientTransform="translate(710.069 1051.48) scale(80.2985)">
<stop offset="0.3243" stop-color="#810915"/>
<stop offset="0.7811" stop-color="#B7252A" stop-opacity="0.0452981"/>
<stop offset="0.973" stop-color="#BE1E2D" stop-opacity="0"/>
</radialGradient>
<linearGradient id="paint77_linear" x1="655.201" y1="897.081" x2="608.337" y2="850.216" gradientUnits="userSpaceOnUse">
<stop offset="0.2811" stop-color="#BE1E2D"/>
<stop offset="0.3048" stop-color="#C3222E"/>
<stop offset="0.4528" stop-color="#DF3834"/>
<stop offset="0.5432" stop-color="#EF4136"/>
<stop offset="0.578" stop-color="#EF4136"/>
<stop offset="0.8459" stop-color="#EF4136"/>
</linearGradient>
<linearGradient id="paint78_linear" x1="763.611" y1="897.081" x2="810.476" y2="850.216" gradientUnits="userSpaceOnUse">
<stop offset="0.2811" stop-color="#BE1E2D"/>
<stop offset="0.3048" stop-color="#C3222E"/>
<stop offset="0.4528" stop-color="#DF3834"/>
<stop offset="0.5432" stop-color="#EF4136"/>
<stop offset="0.578" stop-color="#EF4136"/>
<stop offset="0.8459" stop-color="#EF4136"/>
</linearGradient>
<linearGradient id="paint79_linear" x1="710.691" y1="877.73" x2="710.691" y2="1086.72" gradientUnits="userSpaceOnUse">
<stop offset="0.4486" stop-color="#EF4136"/>
<stop offset="0.8973" stop-color="#BE1E2D"/>
</linearGradient>
<radialGradient id="paint80_radial" cx="0" cy="0" r="1" gradientUnits="userSpaceOnUse" gradientTransform="translate(710.795 959.162) scale(110.008)">
<stop offset="0.00540541" stop-color="#F7941D" stop-opacity="0.5"/>
<stop offset="0.1261" stop-color="#F78E1F" stop-opacity="0.6029"/>
<stop offset="0.3229" stop-color="#F47D23" stop-opacity="0.7706"/>
<stop offset="0.57" stop-color="#F15E28" stop-opacity="0.9813"/>
<stop offset="0.5919" stop-color="#F15A29"/>
<stop offset="0.973" stop-color="#F15A29" stop-opacity="0"/>
</radialGradient>
<linearGradient id="paint81_linear" x1="707.908" y1="955.337" x2="707.908" y2="1086.72" gradientUnits="userSpaceOnUse">
<stop offset="0.6108" stop-color="#FBB040"/>
<stop offset="0.8865" stop-color="#F7941D"/>
<stop offset="1" stop-color="#F15A29"/>
</linearGradient>
<linearGradient id="paint82_linear" x1="707.915" y1="1072.71" x2="707.915" y2="1030.25" gradientUnits="userSpaceOnUse">
<stop offset="0.6108" stop-color="#262262"/>
<stop offset="1" stop-color="#2B3990"/>
</linearGradient>
<linearGradient id="paint83_linear" x1="710.069" y1="848.06" x2="710.069" y2="767.933" gradientUnits="userSpaceOnUse">
<stop offset="0.3541" stop-color="#262262"/>
<stop offset="0.973" stop-color="#2B3990"/>
</linearGradient>
<radialGradient id="paint84_radial" cx="0" cy="0" r="1" gradientUnits="userSpaceOnUse" gradientTransform="translate(710.69 847.909) scale(43.5013 130.504)">
<stop offset="0.2432" stop-color="#262262"/>
<stop offset="0.973" stop-color="#2B3990"/>
</radialGradient>
<linearGradient id="paint85_linear" x1="595.633" y1="935.292" x2="595.633" y2="920.954" gradientUnits="userSpaceOnUse">
<stop offset="0.0486487" stop-color="#F15A29"/>
<stop offset="0.2581" stop-color="#F47A24"/>
<stop offset="0.4252" stop-color="#F68B20"/>
<stop offset="0.527" stop-color="#F7921E"/>
<stop offset="0.53" stop-color="#F7921E"/>
<stop offset="0.7" stop-color="#F7941D"/>
<stop offset="0.7583" stop-color="#F7911E"/>
<stop offset="0.8102" stop-color="#F68A20"/>
<stop offset="0.8597" stop-color="#F47D23"/>
<stop offset="0.9073" stop-color="#F26A27"/>
<stop offset="0.9351" stop-color="#F15A29"/>
</linearGradient>
<linearGradient id="paint86_linear" x1="595.634" y1="921.815" x2="595.634" y2="911.63" gradientUnits="userSpaceOnUse">
<stop offset="0.2378" stop-color="#F15A29"/>
<stop offset="0.3645" stop-color="#F47A24"/>
<stop offset="0.4655" stop-color="#F68B20"/>
<stop offset="0.527" stop-color="#F7921E"/>
<stop offset="0.532" stop-color="#F7921E"/>
<stop offset="0.8135" stop-color="#F7941D"/>
<stop offset="0.8598" stop-color="#F7911E"/>
<stop offset="0.9009" stop-color="#F68A20"/>
<stop offset="0.9401" stop-color="#F47D23"/>
<stop offset="0.9779" stop-color="#F26A27"/>
<stop offset="1" stop-color="#F15A29"/>
</linearGradient>
<linearGradient id="paint87_linear" x1="595.616" y1="810.559" x2="595.616" y2="912.511" gradientUnits="userSpaceOnUse">
<stop offset="0.9216" stop-color="#F7941D"/>
<stop offset="1" stop-color="#F15A29"/>
</linearGradient>
<linearGradient id="paint88_linear" x1="473.346" y1="1541.87" x2="473.346" y2="1135.02" gradientUnits="userSpaceOnUse">
<stop offset="0.1108" stop-color="#262262"/>
<stop offset="0.1859" stop-color="#292B73"/>
<stop offset="0.2702" stop-color="#2A3281"/>
<stop offset="0.3525" stop-color="#2A368B"/>
<stop offset="0.4297" stop-color="#2B3990"/>
<stop offset="0.5291" stop-color="#292A71"/>
<stop offset="0.5946" stop-color="#262262"/>
<stop offset="0.6885" stop-color="#272465"/>
<stop offset="0.7989" stop-color="#29296E"/>
<stop offset="0.9172" stop-color="#2A317F"/>
<stop offset="1" stop-color="#2B3990"/>
</linearGradient>
<linearGradient id="paint89_linear" x1="948.017" y1="1541.66" x2="948.017" y2="1134.81" gradientUnits="userSpaceOnUse">
<stop offset="0.1108" stop-color="#262262"/>
<stop offset="0.1859" stop-color="#292B73"/>
<stop offset="0.2702" stop-color="#2A3281"/>
<stop offset="0.3525" stop-color="#2A368B"/>
<stop offset="0.4297" stop-color="#2B3990"/>
<stop offset="0.5291" stop-color="#292A71"/>
<stop offset="0.5946" stop-color="#262262"/>
<stop offset="0.6885" stop-color="#272465"/>
<stop offset="0.7989" stop-color="#29296E"/>
<stop offset="0.9172" stop-color="#2A317F"/>
<stop offset="1" stop-color="#2B3990"/>
</linearGradient>
<linearGradient id="paint90_linear" x1="518.655" y1="1278.98" x2="711.068" y2="1278.98" gradientUnits="userSpaceOnUse">
<stop offset="0.2351" stop-color="#808285"/>
<stop offset="0.4865" stop-color="#D1D3D4"/>
<stop offset="0.5796" stop-color="#CFD0D2"/>
<stop offset="0.6433" stop-color="#C7C9CB"/>
<stop offset="0.6982" stop-color="#BBBDBF"/>
<stop offset="0.7481" stop-color="#A9ABAE"/>
<stop offset="0.7947" stop-color="#939598"/>
<stop offset="0.8382" stop-color="#7A7C7E"/>
<stop offset="0.8568" stop-color="#6D6E71"/>
</linearGradient>
<linearGradient id="paint91_linear" x1="708.315" y1="1279.26" x2="901" y2="1279.26" gradientUnits="userSpaceOnUse">
<stop offset="0.2351" stop-color="#808285"/>
<stop offset="0.5243" stop-color="#D1D3D4"/>
<stop offset="0.6723" stop-color="#CFD1D3"/>
<stop offset="0.7344" stop-color="#CACBCD"/>
<stop offset="0.7804" stop-color="#BFC1C3"/>
<stop offset="0.8184" stop-color="#B1B3B5"/>
<stop offset="0.8516" stop-color="#9EA0A3"/>
<stop offset="0.8812" stop-color="#898B8D"/>
<stop offset="0.9077" stop-color="#707274"/>
<stop offset="0.9108" stop-color="#6D6E71"/>
</linearGradient>
<linearGradient id="paint92_linear" x1="843.068" y1="1334.87" x2="843.068" y2="1230.88" gradientUnits="userSpaceOnUse">
<stop offset="0.3027" stop-color="#D1D3D4"/>
<stop offset="0.8865" stop-color="#E6E7E8"/>
</linearGradient>
<linearGradient id="paint93_linear" x1="581.572" y1="1341.55" x2="581.572" y2="1243.4" gradientUnits="userSpaceOnUse">
<stop offset="0.3027" stop-color="#D1D3D4"/>
<stop offset="0.8865" stop-color="#E6E7E8"/>
</linearGradient>
<linearGradient id="paint94_linear" x1="433.018" y1="1311.5" x2="689.336" y2="1311.5" gradientUnits="userSpaceOnUse">
<stop offset="0.4" stop-color="#00AEEF"/>
<stop offset="0.6135" stop-color="#007BC4"/>
<stop offset="0.9135" stop-color="#2E3192"/>
</linearGradient>
<linearGradient id="paint95_linear" x1="983.351" y1="1311.17" x2="727.293" y2="1311.17" gradientUnits="userSpaceOnUse">
<stop offset="0.4" stop-color="#00AEEF"/>
<stop offset="0.6135" stop-color="#007BC4"/>
<stop offset="0.9135" stop-color="#2E3192"/>
</linearGradient>
<linearGradient id="paint96_linear" x1="675.745" y1="1359.77" x2="740.183" y2="1359.77" gradientUnits="userSpaceOnUse">
<stop stop-color="#00AEEF"/>
<stop offset="0.0204008" stop-color="#009CE0"/>
<stop offset="0.0509871" stop-color="#0087CE"/>
<stop offset="0.0844935" stop-color="#0074BE"/>
<stop offset="0.1202" stop-color="#0064B1"/>
<stop offset="0.1586" stop-color="#0056A7"/>
<stop offset="0.2007" stop-color="#12499F"/>
<stop offset="0.2479" stop-color="#233F99"/>
<stop offset="0.3031" stop-color="#2A3695"/>
<stop offset="0.3738" stop-color="#2E3293"/>
<stop offset="0.5135" stop-color="#2E3192"/>
<stop offset="0.7155" stop-color="#2E3293"/>
<stop offset="0.7882" stop-color="#2B3695"/>
<stop offset="0.8401" stop-color="#253D98"/>
<stop offset="0.882" stop-color="#18469D"/>
<stop offset="0.9179" stop-color="#0052A5"/>
<stop offset="0.9497" stop-color="#005FAE"/>
<stop offset="0.9778" stop-color="#006DB8"/>
<stop offset="1" stop-color="#007BC4"/>
</linearGradient>
<linearGradient id="paint97_linear" x1="583.66" y1="1496.7" x2="499.181" y2="1448.92" gradientUnits="userSpaceOnUse">
<stop offset="0.2027" stop-color="#19114C"/>
<stop offset="0.5135" stop-color="#00002C"/>
</linearGradient>
<linearGradient id="paint98_linear" x1="598.885" y1="1433.93" x2="541.727" y2="1377.94" gradientUnits="userSpaceOnUse">
<stop offset="0.1108" stop-color="#EF4136"/>
<stop offset="0.264" stop-color="#D12D31"/>
<stop offset="0.4136" stop-color="#C3222E"/>
<stop offset="0.5541" stop-color="#BE1E2D"/>
<stop offset="0.6306" stop-color="#D02C31"/>
<stop offset="0.7568" stop-color="#EF4136"/>
</linearGradient>
<linearGradient id="paint99_linear" x1="581.51" y1="1362.25" x2="592.332" y2="1343.89" gradientUnits="userSpaceOnUse">
<stop stop-color="#BE1E2D"/>
<stop offset="0.0886366" stop-color="#952340"/>
<stop offset="0.1837" stop-color="#70244E"/>
<stop offset="0.272" stop-color="#522457"/>
<stop offset="0.3506" stop-color="#3C235D"/>
<stop offset="0.4166" stop-color="#2C2360"/>
<stop offset="0.4622" stop-color="#262262"/>
<stop offset="0.563" stop-color="#272364"/>
<stop offset="0.6446" stop-color="#28276A"/>
<stop offset="0.7195" stop-color="#2A2D76"/>
<stop offset="0.79" stop-color="#2A3487"/>
<stop offset="0.8135" stop-color="#2B3990"/>
</linearGradient>
<linearGradient id="paint100_linear" x1="596.628" y1="1366.84" x2="607.66" y2="1348.13" gradientUnits="userSpaceOnUse">
<stop stop-color="#BE1E2D"/>
<stop offset="0.0886366" stop-color="#952340"/>
<stop offset="0.1837" stop-color="#70244E"/>
<stop offset="0.272" stop-color="#522457"/>
<stop offset="0.3506" stop-color="#3C235D"/>
<stop offset="0.4166" stop-color="#2C2360"/>
<stop offset="0.4622" stop-color="#262262"/>
<stop offset="0.563" stop-color="#272364"/>
<stop offset="0.6446" stop-color="#28276A"/>
<stop offset="0.7195" stop-color="#2A2D76"/>
<stop offset="0.79" stop-color="#2A3487"/>
<stop offset="0.8135" stop-color="#2B3990"/>
</linearGradient>
<linearGradient id="paint101_linear" x1="611.504" y1="1374.6" x2="622.559" y2="1355.85" gradientUnits="userSpaceOnUse">
<stop stop-color="#BE1E2D"/>
<stop offset="0.0886366" stop-color="#952340"/>
<stop offset="0.1837" stop-color="#70244E"/>
<stop offset="0.272" stop-color="#522457"/>
<stop offset="0.3506" stop-color="#3C235D"/>
<stop offset="0.4166" stop-color="#2C2360"/>
<stop offset="0.4622" stop-color="#262262"/>
<stop offset="0.563" stop-color="#272364"/>
<stop offset="0.6446" stop-color="#28276A"/>
<stop offset="0.7195" stop-color="#2A2D76"/>
<stop offset="0.79" stop-color="#2A3487"/>
<stop offset="0.8135" stop-color="#2B3990"/>
</linearGradient>
<linearGradient id="paint102_linear" x1="563.762" y1="1361.15" x2="574.186" y2="1343.47" gradientUnits="userSpaceOnUse">
<stop stop-color="#BE1E2D"/>
<stop offset="0.0886366" stop-color="#952340"/>
<stop offset="0.1837" stop-color="#70244E"/>
<stop offset="0.272" stop-color="#522457"/>
<stop offset="0.3506" stop-color="#3C235D"/>
<stop offset="0.4166" stop-color="#2C2360"/>
<stop offset="0.4622" stop-color="#262262"/>
<stop offset="0.563" stop-color="#272364"/>
<stop offset="0.6446" stop-color="#28276A"/>
<stop offset="0.7195" stop-color="#2A2D76"/>
<stop offset="0.79" stop-color="#2A3487"/>
<stop offset="0.8135" stop-color="#2B3990"/>
</linearGradient>
<linearGradient id="paint103_linear" x1="825.469" y1="1496.6" x2="909.948" y2="1448.83" gradientUnits="userSpaceOnUse">
<stop offset="0.2027" stop-color="#19114C"/>
<stop offset="0.5135" stop-color="#00002C"/>
</linearGradient>
<linearGradient id="paint104_linear" x1="810.243" y1="1433.84" x2="867.401" y2="1377.85" gradientUnits="userSpaceOnUse">
<stop offset="0.1108" stop-color="#EF4136"/>
<stop offset="0.264" stop-color="#D12D31"/>
<stop offset="0.4136" stop-color="#C3222E"/>
<stop offset="0.5541" stop-color="#BE1E2D"/>
<stop offset="0.6306" stop-color="#D02C31"/>
<stop offset="0.7568" stop-color="#EF4136"/>
</linearGradient>
<linearGradient id="paint105_linear" x1="827.619" y1="1362.16" x2="816.797" y2="1343.8" gradientUnits="userSpaceOnUse">
<stop stop-color="#BE1E2D"/>
<stop offset="0.0886366" stop-color="#952340"/>
<stop offset="0.1837" stop-color="#70244E"/>
<stop offset="0.272" stop-color="#522457"/>
<stop offset="0.3506" stop-color="#3C235D"/>
<stop offset="0.4166" stop-color="#2C2360"/>
<stop offset="0.4622" stop-color="#262262"/>
<stop offset="0.563" stop-color="#272364"/>
<stop offset="0.6446" stop-color="#28276A"/>
<stop offset="0.7195" stop-color="#2A2D76"/>
<stop offset="0.79" stop-color="#2A3487"/>
<stop offset="0.8135" stop-color="#2B3990"/>
</linearGradient>
<linearGradient id="paint106_linear" x1="812.501" y1="1366.75" x2="801.469" y2="1348.03" gradientUnits="userSpaceOnUse">
<stop stop-color="#BE1E2D"/>
<stop offset="0.0886366" stop-color="#952340"/>
<stop offset="0.1837" stop-color="#70244E"/>
<stop offset="0.272" stop-color="#522457"/>
<stop offset="0.3506" stop-color="#3C235D"/>
<stop offset="0.4166" stop-color="#2C2360"/>
<stop offset="0.4622" stop-color="#262262"/>
<stop offset="0.563" stop-color="#272364"/>
<stop offset="0.6446" stop-color="#28276A"/>
<stop offset="0.7195" stop-color="#2A2D76"/>
<stop offset="0.79" stop-color="#2A3487"/>
<stop offset="0.8135" stop-color="#2B3990"/>
</linearGradient>
<linearGradient id="paint107_linear" x1="797.625" y1="1374.51" x2="786.57" y2="1355.76" gradientUnits="userSpaceOnUse">
<stop stop-color="#BE1E2D"/>
<stop offset="0.0886366" stop-color="#952340"/>
<stop offset="0.1837" stop-color="#70244E"/>
<stop offset="0.272" stop-color="#522457"/>
<stop offset="0.3506" stop-color="#3C235D"/>
<stop offset="0.4166" stop-color="#2C2360"/>
<stop offset="0.4622" stop-color="#262262"/>
<stop offset="0.563" stop-color="#272364"/>
<stop offset="0.6446" stop-color="#28276A"/>
<stop offset="0.7195" stop-color="#2A2D76"/>
<stop offset="0.79" stop-color="#2A3487"/>
<stop offset="0.8135" stop-color="#2B3990"/>
</linearGradient>
<linearGradient id="paint108_linear" x1="845.366" y1="1361.06" x2="834.942" y2="1343.37" gradientUnits="userSpaceOnUse">
<stop stop-color="#BE1E2D"/>
<stop offset="0.0886366" stop-color="#952340"/>
<stop offset="0.1837" stop-color="#70244E"/>
<stop offset="0.272" stop-color="#522457"/>
<stop offset="0.3506" stop-color="#3C235D"/>
<stop offset="0.4166" stop-color="#2C2360"/>
<stop offset="0.4622" stop-color="#262262"/>
<stop offset="0.563" stop-color="#272364"/>
<stop offset="0.6446" stop-color="#28276A"/>
<stop offset="0.7195" stop-color="#2A2D76"/>
<stop offset="0.79" stop-color="#2A3487"/>
<stop offset="0.8135" stop-color="#2B3990"/>
</linearGradient>
</defs>
</svg>
